<?xml version="1.0" encoding="UTF-8"?>
<svg version="1.1" xmlns="http://www.w3.org/2000/svg" width="500" height="500">
<path d="M0 0 C1.01835937 0.43570313 2.03671875 0.87140625 3.0859375 1.3203125 C10.23844879 4.61731392 16.04249157 8.89946418 22 14 C22.82757813 14.62777344 23.65515625 15.25554687 24.5078125 15.90234375 C38.8594929 27.98204967 44.33403416 47.13914319 47 65 C49.5520777 105.52347369 37.05745471 145.12206379 10.40234375 176.09375 C8.96485873 177.68722254 7.51227233 179.2674124 6.03515625 180.82421875 C3.88247074 183.06965459 3.88247074 183.06965459 1.65234375 185.93359375 C-1.06077332 189.21407893 -4.13602827 191.78464754 -7.5 194.375 C-8.10875977 194.84760254 -8.71751953 195.32020508 -9.34472656 195.80712891 C-26.362464 208.80129277 -44.05262868 216.22260517 -65 220 C-64.67 220.66 -64.34 221.32 -64 222 C-63.8125 225 -63.8125 225 -64 228 C-64.66 228.66 -65.32 229.32 -66 230 C-66.99 230 -67.98 230 -69 230 C-69 230.66 -69 231.32 -69 232 C-70.10859375 232.19335938 -71.2171875 232.38671875 -72.359375 232.5859375 C-73.82297476 232.84863489 -75.28651327 233.11167367 -76.75 233.375 C-77.47960937 233.50132812 -78.20921875 233.62765625 -78.9609375 233.7578125 C-82.5938428 234.41834074 -85.8187005 235.07447662 -89 237 C-89 237.66 -89 238.32 -89 239 C-89.66 239 -90.32 239 -91 239 C-91 239.66 -91 240.32 -91 241 C-91.66 241 -92.32 241 -93 241 C-93.25007813 241.53367187 -93.50015625 242.06734375 -93.7578125 242.6171875 C-95.87570525 246.67981196 -98.45311452 250.46891194 -100.9296875 254.3203125 C-105.32129077 261.7203042 -107.67794141 269.78773162 -109.5625 278.125 C-109.77592041 279.03878418 -109.98934082 279.95256836 -110.20922852 280.89404297 C-111.44870739 286.28443344 -112.50339807 291.67424052 -113.4375 297.125 C-117.30267872 318.47034091 -125.01025483 341.59284052 -143 355 C-149.9362045 359.29621284 -157.06063323 361.31640415 -165.23828125 359.50390625 C-173.48192429 357.05159563 -177.9554923 352.75171641 -182.01953125 345.28125 C-186.28596465 335.35456831 -184.57467047 322.86609048 -181 313 C-176.93072204 303.48550117 -171.81352737 294.55007517 -166 286 C-165.04867187 284.56720703 -165.04867187 284.56720703 -164.078125 283.10546875 C-160.51891806 277.84754941 -160.51891806 277.84754941 -159 276 C-158.34 276 -157.68 276 -157 276 C-156.64615234 275.19175781 -156.64615234 275.19175781 -156.28515625 274.3671875 C-154.65142489 271.35794372 -152.56573467 268.79053729 -150.4375 266.125 C-138.16766258 250.4095846 -128.39634638 234.32051449 -127 214 C-127.59425781 213.75636719 -128.18851563 213.51273438 -128.80078125 213.26171875 C-133.82517251 210.37916391 -136.53440721 204.64326867 -138.0625 199.25 C-137.98938004 195.44776233 -137.56546184 193.81373234 -135 191 C-131.87890625 190.3671875 -131.87890625 190.3671875 -129 190 C-129.59167969 188.84886719 -130.18335938 187.69773438 -130.79296875 186.51171875 C-136.42355749 175.27197753 -140.37264361 164.29184804 -143 152 C-143.17813232 151.20964355 -143.35626465 150.41928711 -143.53979492 149.60498047 C-149.32364307 116.86563841 -137.54200844 80.25870628 -118.94140625 53.47265625 C-113.45796338 45.8936801 -107.45711179 38.7674351 -101 32 C-100.35417969 31.27941406 -99.70835937 30.55882812 -99.04296875 29.81640625 C-92.01017996 22.27263089 -83.5197876 16.71311623 -75 11 C-73.6696875 10.08347656 -73.6696875 10.08347656 -72.3125 9.1484375 C-52.18141451 -3.92278815 -22.46582742 -10.18872736 0 0 Z M-165.66796875 323.19140625 C-167.41306271 325.56084467 -167.36955761 327.01878399 -167.3125 329.9375 C-167.30863281 330.79214844 -167.30476563 331.64679688 -167.30078125 332.52734375 C-166.98780141 335.10028192 -166.29573378 336.77505475 -165 339 C-163.56206608 338.68950274 -162.1246682 338.3765224 -160.6875 338.0625 C-159.88699219 337.88847656 -159.08648437 337.71445312 -158.26171875 337.53515625 C-155.854599 337.00113841 -155.854599 337.00113841 -153 336 C-153 335.34 -153 334.68 -153 334 C-152.34 334 -151.68 334 -151 334 C-150.34 332.02 -149.68 330.04 -149 328 C-149.66 327.34 -150.32 326.68 -151 326 C-152.9931567 325.97624074 -152.9931567 325.97624074 -155.125 326.375 C-156.40375 326.58125 -157.6825 326.7875 -159 327 C-159.66 325.35 -160.32 323.7 -161 322 C-163.93476207 321.7093809 -163.93476207 321.7093809 -165.66796875 323.19140625 Z " fill="#C3CE98" transform="translate(332,67)"/>
<path d="M0 0 C12.71906544 9.07483883 18.27506299 23.08954837 21 38 C21.4357723 42.50978249 21.5248706 46.97100074 21.5 51.5 C21.49500488 52.71397461 21.49000977 53.92794922 21.48486328 55.17871094 C21.2727597 66.29878965 19.40052624 76.4392898 16 87 C15.77006348 87.72074707 15.54012695 88.44149414 15.30322266 89.18408203 C8.31399057 110.46834647 -3.15572151 128.33624343 -18 145 C-18.99966797 146.12728516 -18.99966797 146.12728516 -20.01953125 147.27734375 C-31.78795138 159.78903252 -51.03197277 171.64331921 -68.375 172.625 C-70.24285156 172.73714844 -70.24285156 172.73714844 -72.1484375 172.8515625 C-73.08945312 172.90054688 -74.03046875 172.94953125 -75 173 C-75.2475 171.88625 -75.495 170.7725 -75.75 169.625 C-76.1625 168.42875 -76.575 167.2325 -77 166 C-77.66515625 165.68546875 -78.3303125 165.3709375 -79.015625 165.046875 C-81 164 -81 164 -81.6875 161.9765625 C-81.790625 161.20054687 -81.89375 160.42453125 -82 159.625 C-82.55884653 156.70866641 -82.99477418 155.00857034 -84.5625 152.4375 C-88.28700571 150.24099663 -91.78673737 150.21240281 -96 151 C-96.78375 151.639375 -97.5675 152.27875 -98.375 152.9375 C-101.91308388 155.71742305 -104.84189004 156.17396103 -109.2890625 156.39453125 C-112.48278821 155.92973832 -113.54863452 155.2633771 -115.75 152.9375 C-125.64348928 139.28638739 -129.59826214 124.72298868 -129.5 108 C-129.49355469 106.83154541 -129.48710937 105.66309082 -129.48046875 104.45922852 C-128.76787603 70.08366184 -110.52581632 40.60324732 -86.828125 16.8203125 C-63.61299448 -4.91114426 -28.84015811 -19.28077986 0 0 Z " fill="#F6F7F0" transform="translate(335,90)"/>
<path d="M0 0 C5.68705687 5.68705687 5.40553211 17.41267263 5.51904297 25.03222656 C5.51275879 26.1765918 5.50647461 27.32095703 5.5 28.5 C5.49500488 29.71397461 5.49000977 30.92794922 5.48486328 32.17871094 C5.2727597 43.29878965 3.40052624 53.4392898 0 64 C-0.22993652 64.72074707 -0.45987305 65.44149414 -0.69677734 66.18408203 C-7.68600943 87.46834647 -19.15572151 105.33624343 -34 122 C-34.99966797 123.12728516 -34.99966797 123.12728516 -36.01953125 124.27734375 C-47.78795138 136.78903252 -67.03197277 148.64331921 -84.375 149.625 C-86.24285156 149.73714844 -86.24285156 149.73714844 -88.1484375 149.8515625 C-89.08945312 149.90054688 -90.03046875 149.94953125 -91 150 C-91.2475 148.88625 -91.495 147.7725 -91.75 146.625 C-92.1625 145.42875 -92.575 144.2325 -93 143 C-93.66515625 142.68546875 -94.3303125 142.3709375 -95.015625 142.046875 C-97 141 -97 141 -97.6875 138.9765625 C-97.790625 138.20054687 -97.89375 137.42453125 -98 136.625 C-98.55884653 133.70866641 -98.99477418 132.00857034 -100.5625 129.4375 C-104.28700571 127.24099663 -107.78673737 127.21240281 -112 128 C-113.175625 128.9590625 -113.175625 128.9590625 -114.375 129.9375 C-117.907268 132.71285343 -120.83939724 133.15687045 -125.2734375 133.42578125 C-129.50828861 132.76446496 -131.17125423 130.56833056 -133.62890625 127.21484375 C-135.29645751 124.52110709 -136.76031078 121.91691582 -138 119 C-137.45601562 118.93941406 -136.91203125 118.87882812 -136.3515625 118.81640625 C-133.00825302 117.65568917 -130.86398885 115.35661082 -128.375 112.9375 C-123.25562756 108 -123.25562756 108 -121 108 C-121 107.34 -121 106.68 -121 106 C-120.34 106 -119.68 106 -119 106 C-119 105.34 -119 104.68 -119 104 C-117.02 103.505 -117.02 103.505 -115 103 C-115 102.34 -115 101.68 -115 101 C-114.34 101 -113.68 101 -113 101 C-113 100.34 -113 99.68 -113 99 C-112.360625 98.896875 -111.72125 98.79375 -111.0625 98.6875 C-110.381875 98.460625 -109.70125 98.23375 -109 98 C-108.505 96.515 -108.505 96.515 -108 95 C-104.566089 91.4677431 -100.69942777 88.35842909 -96.5625 85.6875 C-93.91744289 84.252416 -93.91744289 84.252416 -93 82 C-92.34 82 -91.68 82 -91 82 C-91 81.34 -91 80.68 -91 80 C-90.360625 79.896875 -89.72125 79.79375 -89.0625 79.6875 C-88.381875 79.460625 -87.70125 79.23375 -87 79 C-86.505 77.515 -86.505 77.515 -86 76 C-85.34 76 -84.68 76 -84 76 C-84 75.34 -84 74.68 -84 74 C-82.33333333 73 -80.66666667 72 -79 71 C-78.13375 70.13375 -77.2675 69.2675 -76.375 68.375 C-74 66 -74 66 -71 65 C-71 64.34 -71 63.68 -71 63 C-69.68 62.67 -68.36 62.34 -67 62 C-67 61.34 -67 60.68 -67 60 C-65.20703125 58.4140625 -65.20703125 58.4140625 -62.8125 56.625 C-60.18215193 54.64396741 -57.59769278 52.6661706 -55.0625 50.5625 C-53 49 -53 49 -51 49 C-51 48.34 -51 47.68 -51 47 C-50.01 46.67 -49.02 46.34 -48 46 C-47.505 45.01 -47.505 45.01 -47 44 C-46.34 44 -45.68 44 -45 44 C-44.67 43.01 -44.34 42.02 -44 41 C-42.01924973 39.63823419 -40.01920337 38.30406884 -38 37 C-37.505 36.01 -37.505 36.01 -37 35 C-36.34 35 -35.68 35 -35 35 C-34.79375 34.4225 -34.5875 33.845 -34.375 33.25 C-32.86182383 30.77389354 -31.27784604 29.76903726 -28.84375 28.265625 C-25.68670498 26.09850087 -22.94344202 23.45678852 -20.10546875 20.89453125 C-17.05561506 18.15022876 -14.10142591 15.60578425 -10.5 13.625 C-7.25702086 11.51706356 -5.42212248 9.01128741 -3 6 C-2.34 5.67 -1.68 5.34 -1 5 C-0.34444881 2.47266765 -0.34444881 2.47266765 0 0 Z " fill="#E3E8D4" transform="translate(351,113)"/>
<path d="M0 0 C4.12486211 -0.08813808 8.24947739 -0.14077078 12.375 -0.1875 C14.10943359 -0.22520508 14.10943359 -0.22520508 15.87890625 -0.26367188 C32.58841898 -0.40527792 45.4614898 6.26512298 58 17 C58.82757813 17.62777344 59.65515625 18.25554687 60.5078125 18.90234375 C74.8594929 30.98204967 80.33403416 50.13914319 83 68 C85.5520777 108.52347369 73.05745471 148.12206379 46.40234375 179.09375 C44.96485873 180.68722254 43.51227233 182.2674124 42.03515625 183.82421875 C39.88247074 186.06965459 39.88247074 186.06965459 37.65234375 188.93359375 C34.93922668 192.21407893 31.86397173 194.78464754 28.5 197.375 C27.89124023 197.84760254 27.28248047 198.32020508 26.65527344 198.80712891 C9.637536 211.80129277 -8.05262868 219.22260517 -29 223 C-28.67 223.66 -28.34 224.32 -28 225 C-27.8125 228 -27.8125 228 -28 231 C-28.66 231.66 -29.32 232.32 -30 233 C-30.99 233 -31.98 233 -33 233 C-33 233.66 -33 234.32 -33 235 C-34.10859375 235.19335938 -35.2171875 235.38671875 -36.359375 235.5859375 C-37.82297476 235.84863489 -39.28651327 236.11167367 -40.75 236.375 C-41.47960937 236.50132812 -42.20921875 236.62765625 -42.9609375 236.7578125 C-46.5938428 237.41834074 -49.8187005 238.07447662 -53 240 C-53 240.66 -53 241.32 -53 242 C-53.66 242 -54.32 242 -55 242 C-55 242.66 -55 243.32 -55 244 C-55.66 244 -56.32 244 -57 244 C-57.25007813 244.53367187 -57.50015625 245.06734375 -57.7578125 245.6171875 C-59.87570525 249.67981196 -62.45311452 253.46891194 -64.9296875 257.3203125 C-69.32129077 264.7203042 -71.67794141 272.78773162 -73.5625 281.125 C-73.77592041 282.03878418 -73.98934082 282.95256836 -74.20922852 283.89404297 C-75.44870739 289.28443344 -76.50339807 294.67424052 -77.4375 300.125 C-81.30267872 321.47034091 -89.01025483 344.59284052 -107 358 C-113.9362045 362.29621284 -121.06063323 364.31640415 -129.23828125 362.50390625 C-135.65790692 360.59420248 -139.86125175 357.92295595 -143.875 352.4375 C-145 350 -145 350 -145 346 C-141.28828073 347.23723976 -139.7446651 349.2553349 -137 352 C-132.4776974 354.7379285 -128.14302116 354.70199283 -123 354 C-111.13667708 350.15871321 -104.70708017 341.53292749 -99.22338867 330.88989258 C-92.94042339 318.09561484 -89.65835242 304.96919521 -86.88696289 291.04492188 C-82.70702639 270.29894999 -76.38792946 253.02450907 -63.00390625 236.51171875 C-61.00707138 234.18766724 -61.00707138 234.18766724 -60 232 C-63.63 232 -67.26 232 -71 232 C-69.91458008 227.65832032 -69.56442894 227.28134039 -66.125 224.875 C-65.42632812 224.37742187 -64.72765625 223.87984375 -64.0078125 223.3671875 C-62.34515052 222.23502467 -60.67369094 221.11579396 -59 220 C-63.74356266 215.37502641 -66.45772767 214.55442986 -73 214 C-73.33 213.34 -73.66 212.68 -74 212 C-70.7 211.67 -67.4 211.34 -64 211 C-63.649375 211.804375 -63.29875 212.60875 -62.9375 213.4375 C-61.1584039 216.3328046 -61.1584039 216.3328046 -57.5625 216.9375 C-53.29794136 217.19005333 -53.29794136 217.19005333 -50 215 C-49.35038587 212.29694459 -49.18039343 209.79609815 -49 207 C-47.906875 206.690625 -46.81375 206.38125 -45.6875 206.0625 C-43.44592006 205.41662103 -41.2130649 204.7376883 -39 204 C-38.67834575 199.13241319 -38.67834575 199.13241319 -40.25 194.625 C-42.11742778 192.6289388 -42.11742778 192.6289388 -46 192 C-46 188.04 -46 184.08 -46 180 C-49.56471391 178.81176203 -52.2558336 178.73725148 -56 179 C-59.1850357 180.76015131 -59.83296972 181.49890916 -61 185 C-61.99 184.67 -62.98 184.34 -64 184 C-68.99287391 183.52332196 -68.99287391 183.52332196 -73.375 185.625 C-75.2999963 188.43845613 -75.69393785 190.6333163 -76 194 C-76.66 194 -77.32 194 -78 194 C-78.16702456 189.65736138 -78.12999997 186.79039366 -76 183 C-76.49628906 182.51273438 -76.99257812 182.02546875 -77.50390625 181.5234375 C-91.94325289 166.45391065 -95.63337029 147.8575442 -95.47290039 127.64990234 C-95.22252176 118.32007536 -93.91781389 109.84958421 -91 101 C-90.79101074 100.34418945 -90.58202148 99.68837891 -90.36669922 99.01269531 C-83.72792322 78.59410785 -72.72363555 61.55107953 -58 46 C-57.16855469 45.10410156 -56.33710938 44.20820312 -55.48046875 43.28515625 C-43.46396391 30.74084007 -29.97771378 22.67781662 -14 16 C-13.03707031 15.59523438 -12.07414063 15.19046875 -11.08203125 14.7734375 C3.06312138 9.96093724 20.48826619 11.98060897 33.69140625 18.28515625 C48.03104322 26.14459087 55.88099419 39.16173231 60.4375 54.4375 C68.37605065 84.02017082 59.61976332 116.88558247 45 143 C38.45933622 154.08739603 31.0389755 163.8538959 22 173 C21.20207031 173.87011719 20.40414062 174.74023438 19.58203125 175.63671875 C6.74655257 189.30974906 -11.76038944 199.56041329 -30.4375 201.875 C-34.39138814 202.43616381 -36.48558778 202.83670298 -38.9375 206.0625 C-39.618125 207.031875 -40.29875 208.00125 -41 209 C-43.8125 209.875 -43.8125 209.875 -46 210 C-46.185625 211.1446875 -46.185625 211.1446875 -46.375 212.3125 C-47 215 -47 215 -49 218 C-42.65776838 218.47666041 -38.20223594 217.98217452 -32.5234375 215.1328125 C-29.53026524 213.78912836 -26.54415432 212.97248172 -23.375 212.125 C6.76584728 203.76879962 29.93895724 183.94314745 47 158 C47.68707031 156.98292969 48.37414062 155.96585938 49.08203125 154.91796875 C64.34890804 131.4853239 72.44259953 103.39822474 72.3125 75.5625 C72.30404053 73.65682251 72.30404053 73.65682251 72.29541016 71.71264648 C72.02391574 50.75784755 66.2054072 33.00719793 51.9375 17.3125 C37.56511305 3.4787715 18.8405538 2.45125582 0 2 C0 1.34 0 0.68 0 0 Z M-61.64648438 57.28759766 C-74.04661085 72.97563646 -83.11447502 90.59295097 -88 110 C-88.18546387 110.73661865 -88.37092773 111.4732373 -88.56201172 112.23217773 C-93.63326145 134.61851074 -90.30688822 157.06355553 -78.4453125 176.5546875 C-76.75926706 178.88610919 -75.42986788 180.45539708 -73 182 C-69.08271295 182.58054758 -65.77426534 182.16176605 -62 181 C-60.321702 179.68133728 -58.65385233 178.34919532 -57 177 C-52.78673737 176.21240281 -49.28700571 176.24099663 -45.5625 178.4375 C-43.65430565 181.56693874 -43.16687385 184.36927427 -42.6875 187.9765625 C-42.1947272 190.18785977 -42.1947272 190.18785977 -40.015625 191.046875 C-39.35046875 191.36140625 -38.6853125 191.6759375 -38 192 C-36.75 195.625 -36.75 195.625 -36 199 C-14.98756038 198.93524672 3.34757597 188.42375881 18.0703125 173.96875 C19.04991354 172.98217446 20.0266534 171.99274664 21 171 C21.82242188 170.1646875 22.64484375 169.329375 23.4921875 168.46875 C29.41379201 162.15783585 34.26843496 155.21428738 39 148 C39.53367187 147.21367187 40.06734375 146.42734375 40.6171875 145.6171875 C56.36937946 121.18000322 64.37921166 87.97832062 59.31640625 59.24609375 C55.84881286 45.44766195 49.47284593 32.4948276 37.1875 24.6875 C32.0218986 21.80883668 26.61276282 19.82111273 21 18 C20.01 17.67 19.02 17.34 18 17 C-13.59601814 14.29618427 -42.15772023 33.82862625 -61.64648438 57.28759766 Z " fill="#97A56C" transform="translate(296,64)"/>
<path d="M0 0 C1.72766602 0.01353516 1.72766602 0.01353516 3.49023438 0.02734375 C6.30621193 0.05071286 9.12174158 0.08347435 11.9375 0.125 C11.9375 0.455 11.9375 0.785 11.9375 1.125 C4.3475 1.125 -3.2425 1.125 -11.0625 1.125 C-11.0625 1.785 -11.0625 2.445 -11.0625 3.125 C-10.47984375 3.09881592 -9.8971875 3.07263184 -9.296875 3.0456543 C9.23862086 2.32616522 25.02807606 4.080098 39.70703125 16.4609375 C53.18405409 29.03457577 61.30094191 46.61095313 62.06030273 65.11791992 C62.40129609 79.70808225 62.53832249 93.92498228 58.9375 108.125 C58.68806641 109.13481934 58.68806641 109.13481934 58.43359375 110.16503906 C52.12977843 135.18184688 40.37016905 158.08112972 22.9375 177.125 C22.18984375 178.00285156 21.4421875 178.88070312 20.671875 179.78515625 C4.1637798 198.99511595 -16.91764124 210.25679107 -41.16162109 216.4777832 C-44.57569808 217.36183269 -47.09978611 218.14985741 -50.0625 220.125 C-52.54296875 220.1015625 -52.54296875 220.1015625 -55.25 219.75 C-56.15105469 219.63914062 -57.05210937 219.52828125 -57.98046875 219.4140625 C-58.66753906 219.31867188 -59.35460937 219.22328125 -60.0625 219.125 C-59.73765625 218.50753906 -59.4128125 217.89007813 -59.078125 217.25390625 C-57.96071146 215.20274581 -57.96071146 215.20274581 -57.8125 213.0625 C-56.62786827 210.00220137 -53.92862165 209.52996159 -51.0625 208.125 C-50.18658203 206.88556641 -50.18658203 206.88556641 -49.29296875 205.62109375 C-46.38308766 202.36467691 -44.46390379 202.23978955 -40.1875 201.625 C-21.23035413 198.3974173 -5.67142531 189.57136136 7.9375 176.125 C8.75476563 175.36832031 9.57203125 174.61164063 10.4140625 173.83203125 C34.98320435 150.5179694 50.24697957 114.18517687 51.29321289 80.54858398 C51.46656752 61.57393231 46.37699246 42.31164834 33.4375 27.9375 C21.72741478 16.83543844 6.77482608 14.41648592 -8.671875 14.7578125 C-34.23250525 16.02595074 -56.64701089 34.25958929 -73.32275391 52.18701172 C-82.99568334 62.96216101 -89.68244692 75.19936866 -96.0625 88.125 C-97.7125 87.135 -99.3625 86.145 -101.0625 85.125 C-101.248125 86.2696875 -101.248125 86.2696875 -101.4375 87.4375 C-102.0625 90.125 -102.0625 90.125 -104.0625 93.125 C-105.0525 92.795 -106.0425 92.465 -107.0625 92.125 C-106.40830901 87.05501981 -104.2078591 82.70509223 -102.0625 78.125 C-103.5475 78.62 -103.5475 78.62 -105.0625 79.125 C-100.06452487 62.55671246 -87.69558568 48.48645419 -76.0625 36.125 C-75.41410156 35.40054688 -74.76570313 34.67609375 -74.09765625 33.9296875 C-67.06217477 26.3945653 -58.5789617 20.83588597 -50.0625 15.125 C-49.175625 14.51398438 -48.28875 13.90296875 -47.375 13.2734375 C-33.04219131 3.96706519 -16.89645645 -0.2534956 0 0 Z " fill="#C7D29D" transform="translate(307.0625,62.875)"/>
<path d="M0 0 C13.29986785 10.58651688 19.93110813 27.41350025 21.81469727 43.96655273 C24.92452722 78.09273682 11.90231602 113.3982471 -9.45166016 139.79443359 C-12.48306201 143.3480209 -15.71655943 146.67764458 -19 150 C-20.19689453 151.30517578 -20.19689453 151.30517578 -21.41796875 152.63671875 C-34.25344743 166.30974906 -52.76038944 176.56041329 -71.4375 178.875 C-75.39138814 179.43616381 -77.48558778 179.83670298 -79.9375 183.0625 C-80.618125 184.031875 -81.29875 185.00125 -82 186 C-84.8125 186.875 -84.8125 186.875 -87 187 C-87.103125 187.7425 -87.20625 188.485 -87.3125 189.25 C-88.04253504 192.17014018 -89.06789398 193.73187554 -91 196 C-89.02 196 -87.04 196 -85 196 C-85 196.33 -85 196.66 -85 197 C-85.67804688 197.08636719 -86.35609375 197.17273438 -87.0546875 197.26171875 C-93.91148511 198.29688626 -100.26590949 199.937885 -106 204 C-106.70890955 205.31136169 -107.38335114 206.64280937 -108 208 C-110.125 208.75 -110.125 208.75 -112 209 C-111.62270119 206.35890834 -111.23374595 205.21907131 -109.2578125 203.3671875 C-108.55398437 202.87476563 -107.85015625 202.38234375 -107.125 201.875 C-106.42632812 201.37742187 -105.72765625 200.87984375 -105.0078125 200.3671875 C-103.34515052 199.23502467 -101.67369094 198.11579396 -100 197 C-104.74356266 192.37502641 -107.45772767 191.55442986 -114 191 C-114.495 190.01 -114.495 190.01 -115 189 C-111.7 188.67 -108.4 188.34 -105 188 C-104.649375 188.804375 -104.29875 189.60875 -103.9375 190.4375 C-102.1584039 193.3328046 -102.1584039 193.3328046 -98.5625 193.9375 C-94.29794136 194.19005333 -94.29794136 194.19005333 -91 192 C-90.35038587 189.29694459 -90.18039343 186.79609815 -90 184 C-88.906875 183.690625 -87.81375 183.38125 -86.6875 183.0625 C-84.44592006 182.41662103 -82.2130649 181.7376883 -80 181 C-79.67834575 176.13241319 -79.67834575 176.13241319 -81.25 171.625 C-83.11742778 169.6289388 -83.11742778 169.6289388 -87 169 C-87 165.04 -87 161.08 -87 157 C-90.56471391 155.81176203 -93.2558336 155.73725148 -97 156 C-100.1850357 157.76015131 -100.83296972 158.49890916 -102 162 C-102.99 161.67 -103.98 161.34 -105 161 C-109.99287391 160.52332196 -109.99287391 160.52332196 -114.375 162.625 C-116.2999963 165.43845613 -116.69393785 167.6333163 -117 171 C-117.66 171 -118.32 171 -119 171 C-119.16702456 166.65736138 -119.12999997 163.79039366 -117 160 C-117.49628906 159.51273438 -117.99257812 159.02546875 -118.50390625 158.5234375 C-132.94325289 143.45391065 -136.63337029 124.8575442 -136.47290039 104.64990234 C-136.22252176 95.32007536 -134.91781389 86.84958421 -132 78 C-131.79101074 77.34418945 -131.58202148 76.68837891 -131.36669922 76.01269531 C-124.72792322 55.59410785 -113.72363555 38.55107953 -99 23 C-97.75283203 21.65615234 -97.75283203 21.65615234 -96.48046875 20.28515625 C-84.46396391 7.74084007 -70.97771378 -0.32218338 -55 -7 C-54.03707031 -7.40476562 -53.07414062 -7.80953125 -52.08203125 -8.2265625 C-35.13114795 -13.99363567 -14.1976158 -10.5413736 0 0 Z M-102.64648438 34.28759766 C-115.04661085 49.97563646 -124.11447502 67.59295097 -129 87 C-129.18546387 87.73661865 -129.37092773 88.4732373 -129.56201172 89.23217773 C-134.63326145 111.61851074 -131.30688822 134.06355553 -119.4453125 153.5546875 C-117.75926706 155.88610919 -116.42986788 157.45539708 -114 159 C-110.08271295 159.58054758 -106.77426534 159.16176605 -103 158 C-101.321702 156.68133728 -99.65385233 155.34919532 -98 154 C-93.78673737 153.21240281 -90.28700571 153.24099663 -86.5625 155.4375 C-84.65430565 158.56693874 -84.16687385 161.36927427 -83.6875 164.9765625 C-83.1947272 167.18785977 -83.1947272 167.18785977 -81.015625 168.046875 C-80.35046875 168.36140625 -79.6853125 168.6759375 -79 169 C-77.75 172.625 -77.75 172.625 -77 176 C-55.98756038 175.93524672 -37.65242403 165.42375881 -22.9296875 150.96875 C-21.95008646 149.98217446 -20.9733466 148.99274664 -20 148 C-19.17757812 147.1646875 -18.35515625 146.329375 -17.5078125 145.46875 C-11.58620799 139.15783585 -6.73156504 132.21428738 -2 125 C-1.46632813 124.21367187 -0.93265625 123.42734375 -0.3828125 122.6171875 C15.36937946 98.18000322 23.37921166 64.97832062 18.31640625 36.24609375 C14.84881286 22.44766195 8.47284593 9.4948276 -3.8125 1.6875 C-8.9781014 -1.19116332 -14.38723718 -3.17888727 -20 -5 C-20.99 -5.33 -21.98 -5.66 -23 -6 C-54.59601814 -8.70381573 -83.15772023 10.82862625 -102.64648438 34.28759766 Z " fill="#7A8753" transform="translate(337,87)"/>
<path d="M0 0 C0.63035156 0.22429687 1.26070313 0.44859375 1.91015625 0.6796875 C2.90015625 0.0196875 3.89015625 -0.6403125 4.91015625 -1.3203125 C5.90015625 -0.9903125 6.89015625 -0.6603125 7.91015625 -0.3203125 C7.25015625 -0.3203125 6.59015625 -0.3203125 5.91015625 -0.3203125 C6.40515625 0.6696875 6.40515625 0.6696875 6.91015625 1.6796875 C7.09765625 4.6796875 7.09765625 4.6796875 6.91015625 7.6796875 C6.25015625 8.3396875 5.59015625 8.9996875 4.91015625 9.6796875 C3.92015625 9.6796875 2.93015625 9.6796875 1.91015625 9.6796875 C1.91015625 10.3396875 1.91015625 10.9996875 1.91015625 11.6796875 C0.8015625 11.87304688 -0.30703125 12.06640625 -1.44921875 12.265625 C-2.91281851 12.52832239 -4.37635702 12.79136117 -5.83984375 13.0546875 C-6.56945312 13.18101562 -7.2990625 13.30734375 -8.05078125 13.4375 C-11.68368655 14.09802824 -14.90854425 14.75416412 -18.08984375 16.6796875 C-18.08984375 17.3396875 -18.08984375 17.9996875 -18.08984375 18.6796875 C-18.74984375 18.6796875 -19.40984375 18.6796875 -20.08984375 18.6796875 C-20.08984375 19.3396875 -20.08984375 19.9996875 -20.08984375 20.6796875 C-20.74984375 20.6796875 -21.40984375 20.6796875 -22.08984375 20.6796875 C-22.46496094 21.48019531 -22.46496094 21.48019531 -22.84765625 22.296875 C-24.965549 26.35949946 -27.54295827 30.14859944 -30.01953125 34 C-34.41113452 41.3999917 -36.76778516 49.46741912 -38.65234375 57.8046875 C-38.86576416 58.71847168 -39.07918457 59.63225586 -39.29907227 60.57373047 C-40.53855114 65.96412094 -41.59324182 71.35392802 -42.52734375 76.8046875 C-46.39252247 98.15002841 -54.10009858 121.27252802 -72.08984375 134.6796875 C-79.02604825 138.97590034 -86.15047698 140.99609165 -94.328125 139.18359375 C-100.74775067 137.27388998 -104.9510955 134.60264345 -108.96484375 129.1171875 C-110.08984375 126.6796875 -110.08984375 126.6796875 -110.08984375 122.6796875 C-106.37812448 123.91692726 -104.83450885 125.9350224 -102.08984375 128.6796875 C-97.56754115 131.417616 -93.23286491 131.38168033 -88.08984375 130.6796875 C-76.22652083 126.83840071 -69.79692392 118.21261499 -64.31323242 107.56958008 C-58.03026714 94.77530234 -54.74819617 81.64888271 -51.97680664 67.72460938 C-47.79687014 46.97863749 -41.47777321 29.70419657 -28.09375 13.19140625 C-26.09691513 10.86735474 -26.09691513 10.86735474 -25.08984375 8.6796875 C-27.39984375 8.3496875 -29.70984375 8.0196875 -32.08984375 7.6796875 C-32.08984375 6.6896875 -32.08984375 5.6996875 -32.08984375 4.6796875 C-22.53348513 -3.66619903 -11.26782903 -6.25763282 0 0 Z " fill="#9CA96F" transform="translate(261.08984375,287.3203125)"/>
<path d="M0 0 C0.63035156 0.22429687 1.26070313 0.44859375 1.91015625 0.6796875 C2.90015625 0.0196875 3.89015625 -0.6403125 4.91015625 -1.3203125 C5.90015625 -0.9903125 6.89015625 -0.6603125 7.91015625 -0.3203125 C7.25015625 -0.3203125 6.59015625 -0.3203125 5.91015625 -0.3203125 C6.40515625 0.6696875 6.40515625 0.6696875 6.91015625 1.6796875 C7.09765625 4.6796875 7.09765625 4.6796875 6.91015625 7.6796875 C6.25015625 8.3396875 5.59015625 8.9996875 4.91015625 9.6796875 C3.92015625 9.6796875 2.93015625 9.6796875 1.91015625 9.6796875 C1.91015625 10.3396875 1.91015625 10.9996875 1.91015625 11.6796875 C0.8015625 11.87304688 -0.30703125 12.06640625 -1.44921875 12.265625 C-2.91281851 12.52832239 -4.37635702 12.79136117 -5.83984375 13.0546875 C-6.93425781 13.24417969 -6.93425781 13.24417969 -8.05078125 13.4375 C-11.68368655 14.09802824 -14.90854425 14.75416412 -18.08984375 16.6796875 C-18.08984375 17.3396875 -18.08984375 17.9996875 -18.08984375 18.6796875 C-18.74984375 18.6796875 -19.40984375 18.6796875 -20.08984375 18.6796875 C-20.08984375 19.3396875 -20.08984375 19.9996875 -20.08984375 20.6796875 C-20.74984375 20.6796875 -21.40984375 20.6796875 -22.08984375 20.6796875 C-22.33992188 21.21335937 -22.59 21.74703125 -22.84765625 22.296875 C-24.38664323 25.24901983 -26.1731309 27.99879757 -27.96484375 30.8046875 C-31.36210674 36.20698071 -34.01806073 41.64153041 -36.08984375 47.6796875 C-36.74984375 46.6896875 -37.40984375 45.6996875 -38.08984375 44.6796875 C-39.07984375 44.6796875 -40.06984375 44.6796875 -41.08984375 44.6796875 C-43.08984375 41.6796875 -43.08984375 41.6796875 -44.08984375 38.6796875 C-43.08348627 36.26805607 -42.0290312 34.08521431 -40.77734375 31.8046875 C-40.42212646 31.14573486 -40.06690918 30.48678223 -39.70092773 29.80786133 C-36.37320842 23.82913774 -32.39061816 18.49985179 -28.09375 13.19140625 C-26.09691513 10.86735474 -26.09691513 10.86735474 -25.08984375 8.6796875 C-27.39984375 8.3496875 -29.70984375 8.0196875 -32.08984375 7.6796875 C-32.08984375 6.6896875 -32.08984375 5.6996875 -32.08984375 4.6796875 C-22.53348513 -3.66619903 -11.26782903 -6.25763282 0 0 Z " fill="#9FAC74" transform="translate(261.08984375,287.3203125)"/>
<path d="M0 0 C1.32523682 -0.02139038 1.32523682 -0.02139038 2.67724609 -0.04321289 C8.57249698 0.00142305 14.02775795 0.74050514 19.375 3.375 C19.87 4.365 19.87 4.365 20.375 5.375 C13.75 6.5 13.75 6.5 10.375 5.375 C-14.04608296 3.28517628 -34.98500578 14.25311415 -53.26953125 29.59375 C-74.9311315 48.4935794 -87.26651135 72.30489472 -95.625 99.375 C-96.615 99.375 -97.605 99.375 -98.625 99.375 C-101.57134609 84.81004387 -90.47699598 65.99458246 -82.6875 54 C-66.54923921 31.03880655 -47.54410152 14.20777679 -21.625 3.375 C-20.66207031 2.97023438 -19.69914062 2.56546875 -18.70703125 2.1484375 C-12.61890698 0.07712018 -6.37106918 0.08433757 0 0 Z " fill="#74824B" transform="translate(303.625,76.625)"/>
<path d="M0 0 C2.49643608 2.49643608 2.96538805 4.50442824 4 7.875 C4.33 8.92429687 4.66 9.97359375 5 11.0546875 C13.18845035 41.22479388 7.52944762 74.30781146 -6 102 C-7.98 100.35 -9.96 98.7 -12 97 C-12.99 97.495 -12.99 97.495 -14 98 C-11.83873437 91.40245228 -9.53671237 84.86358479 -7.18359375 78.33203125 C-6.79300781 77.23246094 -6.40242188 76.13289063 -6 75 C-5.65195312 74.0409375 -5.30390625 73.081875 -4.9453125 72.09375 C-3.7938755 68.32541074 -3.09123687 64.56855093 -2.4375 60.6875 C-2.30819092 59.92840332 -2.17888184 59.16930664 -2.0456543 58.38720703 C-1.68858589 56.25941741 -1.34133203 54.1303641 -1 52 C-0.79503906 50.72189453 -0.79503906 50.72189453 -0.5859375 49.41796875 C1.00278935 37.54790957 0.01340541 25.74241549 -2 14 C-2.18691406 12.87722656 -2.37382812 11.75445312 -2.56640625 10.59765625 C-2.70949219 9.74042969 -2.85257812 8.88320312 -3 8 C-2.01 8 -1.02 8 0 8 C0 5.36 0 2.72 0 0 Z " fill="#9CA872" transform="translate(371,105)"/>
<path d="M0 0 C0 0.33 0 0.66 0 1 C-0.61294922 1.00410889 -1.22589844 1.00821777 -1.85742188 1.01245117 C-30.28028049 1.34461809 -52.34482938 10.59445742 -72.875 30.625 C-73.92901833 31.73843603 -74.97101378 32.86339022 -76 34 C-76.5465625 34.58910156 -77.093125 35.17820313 -77.65625 35.78515625 C-100.92054507 61.53450102 -113.61603917 91.78300481 -112.22558594 126.55664062 C-111.94543899 129.59095956 -111.1735707 132.19401894 -110 135 C-108.90341064 138.28976808 -109.20046862 139.71303767 -110 143 C-115.60223523 137.39776477 -115.40148358 125.85235135 -115.51953125 118.32397461 C-115.51308594 117.22706299 -115.50664062 116.13015137 -115.5 115 C-115.49355469 113.83154541 -115.48710937 112.66309082 -115.48046875 111.45922852 C-114.76787603 77.08366184 -96.52581632 47.60324732 -72.828125 23.8203125 C-54.09171897 6.28134595 -25.87300162 -8.33537423 0 0 Z " fill="#D8DFC3" transform="translate(321,83)"/>
<path d="M0 0 C0.66 0 1.32 0 2 0 C2.33 1.03125 2.66 2.0625 3 3.125 C4.9981258 7.91075496 8.76500453 10.25379154 13 13 C13.99 11.02 14.98 9.04 16 7 C15.34 6.01 14.68 5.02 14 4 C15.32 4.33 16.64 4.66 18 5 C18 5.66 18 6.32 18 7 C18.66 7.33 19.32 7.66 20 8 C18.9790625 9.0209375 18.9790625 9.0209375 17.9375 10.0625 C15.6110158 12.94633751 15.6110158 12.94633751 16.25 16.8125 C16.4975 17.864375 16.745 18.91625 17 20 C19.64 20.33 22.28 20.66 25 21 C25.33 20.34 25.66 19.68 26 19 C26.66 19.66 27.32 20.32 28 21 C26.93458984 21.19916016 26.93458984 21.19916016 25.84765625 21.40234375 C24.92855469 21.57894531 24.00945312 21.75554687 23.0625 21.9375 C22.14597656 22.11152344 21.22945312 22.28554688 20.28515625 22.46484375 C18.04710156 22.77714988 18.04710156 22.77714988 17 24 C16.92741054 26.18639453 16.91626217 28.37500389 16.9375 30.5625 C16.94652344 31.76003906 16.95554688 32.95757812 16.96484375 34.19140625 C16.97644531 35.11824219 16.98804688 36.04507813 17 37 C15.515 37.495 15.515 37.495 14 38 C12.2421875 35.75390625 12.2421875 35.75390625 10.484375 33.5078125 C8.80650617 31.803451 7.17669374 30.95811733 5 30 C4.87882813 30.78246094 4.75765625 31.56492187 4.6328125 32.37109375 C4.46523437 33.38300781 4.29765625 34.39492188 4.125 35.4375 C3.88136719 36.95150391 3.88136719 36.95150391 3.6328125 38.49609375 C3.42398438 39.32238281 3.21515625 40.14867187 3 41 C2.01 41.495 2.01 41.495 1 42 C1.33 37.05 1.66 32.1 2 27 C0.68 26.67 -0.64 26.34 -2 26 C-6.37339714 21.89863235 -8.95975383 16.94153424 -9.9375 11.0546875 C-10 9 -10 9 -9.0625 5.9375 C-7 4 -7 4 -3.3125 3.6875 C-2.219375 3.790625 -1.12625 3.89375 0 4 C0 2.68 0 1.36 0 0 Z " fill="#87935B" transform="translate(204,254)"/>
<path d="M0 0 C0.99 0.99 0.99 0.99 2 2 C1.33411865 2.52956299 1.33411865 2.52956299 0.65478516 3.06982422 C-1.35616575 4.67026957 -3.3655973 6.27261135 -5.375 7.875 C-6.07367188 8.43058594 -6.77234375 8.98617188 -7.4921875 9.55859375 C-8.1625 10.09355469 -8.8328125 10.62851562 -9.5234375 11.1796875 C-10.450354 11.91807861 -10.450354 11.91807861 -11.39599609 12.67138672 C-13.11757824 14.0552484 -13.11757824 14.0552484 -15 16 C-14.505 16.99 -14.505 16.99 -14 18 C-13.01 18 -12.02 18 -11 18 C-11.23046875 19.84375 -11.23046875 19.84375 -12 22 C-22.21700877 29.36824112 -39.33636819 34 -52 34 C-52.33 34.66 -52.66 35.32 -53 36 C-54.08667969 35.47599609 -54.08667969 35.47599609 -55.1953125 34.94140625 C-62.30984218 31.53954009 -62.30984218 31.53954009 -70 30 C-69.67 29.34 -69.34 28.68 -69 28 C-68.38253906 28.11859375 -67.76507813 28.2371875 -67.12890625 28.359375 C-61.24842203 29.25442587 -57.77840881 28.86920839 -52.5234375 26.16796875 C-49.53198731 24.78338112 -46.55980074 23.97308739 -43.375 23.125 C-26.67532176 18.49520787 -13.33818445 11.13926467 0 0 Z " fill="#919E63" transform="translate(316,253)"/>
<path d="M0 0 C0.33 0 0.66 0 1 0 C0.51262374 15.1086642 -6.13822052 29.73773714 -13 43 C-13.46792969 43.90492188 -13.46792969 43.90492188 -13.9453125 44.828125 C-18.4118059 53.32535635 -23.63561579 60.78557817 -30 68 C-30.7321875 68.85335937 -31.464375 69.70671875 -32.21875 70.5859375 C-42.66794775 82.5436462 -59.57319519 99.05776808 -76.5625 100.25 C-77.366875 100.1675 -78.17125 100.085 -79 100 C-79 99.34 -79 98.68 -79 98 C-78.33355469 97.70867187 -77.66710937 97.41734375 -76.98046875 97.1171875 C-66.75197713 92.56801221 -57.54628775 87.84434825 -48.99609375 80.5390625 C-47 79 -47 79 -45 79 C-44.773125 78.443125 -44.54625 77.88625 -44.3125 77.3125 C-42.62449964 74.33840412 -40.53323483 72.27991135 -38 70 C-37.34 70 -36.68 70 -36 70 C-36 69.34 -36 68.68 -36 68 C-35.34 68 -34.68 68 -34 68 C-33.62875 67.1646875 -33.62875 67.1646875 -33.25 66.3125 C-31.78224216 63.597148 -29.93395084 61.40278741 -28 59 C-27.46375 58.071875 -26.9275 57.14375 -26.375 56.1875 C-25.92125 55.465625 -25.4675 54.74375 -25 54 C-24.34 54 -23.68 54 -23 54 C-23.0928125 52.8553125 -23.0928125 52.8553125 -23.1875 51.6875 C-22.96090987 48.43970809 -22.30636179 48.1302196 -20 46 C-14.9868336 39.93143014 -12.68062432 33.34136138 -10 26 C-9.484375 24.80375 -8.96875 23.6075 -8.4375 22.375 C-5.86992366 16.34677729 -3.55513817 10.19531457 -1.8125 3.875 C-1 1 -1 1 0 0 Z " fill="#F0F5E2" transform="translate(353,160)"/>
<path d="M0 0 C0.33 0 0.66 0 1 0 C1.63110162 23.91173911 -2.3911474 43.04274958 -12 65 C-11.38125 65.28875 -10.7625 65.5775 -10.125 65.875 C-8 67 -8 67 -6 69 C-5.4476365 73.27161108 -6.68347537 76.01453848 -8.6875 79.75 C-9.18636719 80.71421875 -9.68523437 81.6784375 -10.19921875 82.671875 C-12 85 -12 85 -14.45703125 85.953125 C-17.26152983 86.00482083 -18.6504994 85.4793152 -21 84 C-27.2780176 91.56717719 -27.2780176 91.56717719 -33.25 99.375 C-35.58936612 102.54571111 -38.17411548 105.24657406 -41 108 C-41.86313121 109.05523053 -42.7171723 110.11795429 -43.5625 111.1875 C-45.72122523 113.67833681 -46.97388196 114.87921554 -50 116 C-48.4013921 112.13064223 -45.88596163 109.61754544 -43 106.625 C-36.96583912 100.19566231 -31.88236867 93.32958062 -27 86 C-26.62133789 85.44570312 -26.24267578 84.89140625 -25.85253906 84.3203125 C-9.10522951 59.56973533 -1.73841777 29.49315668 0 0 Z " fill="#8B985D" transform="translate(370,136)"/>
<path d="M0 0 C10.4842952 2.68828082 19.41433242 10.36912532 25.13671875 19.35546875 C37.88093226 41.46956896 38.82122007 67.28205901 32.29980469 91.61230469 C28.34151505 105.18002705 23.29760296 120.40120016 15 132 C14.01 132 13.02 132 12 132 C13.48781342 128.06896357 15.30664955 124.41225503 17.25 120.6875 C21.13803459 112.9978994 24.3611941 105.2037945 27 97 C27.24556641 96.23896973 27.49113281 95.47793945 27.74414062 94.69384766 C34.65301574 72.35849346 35.06058952 47.97625181 25.1875 26.5625 C18.90693798 14.89412418 10.19337213 8.77131953 -2 4 C-2 2 -2 2 0 0 Z " fill="#858F61" transform="translate(323,80)"/>
<path d="M0 0 C2.4375 1.5 2.4375 1.5 4 4 C4.48117071 7.47817686 4.60290203 10.79419594 3 14 C3.78375 14.0825 4.5675 14.165 5.375 14.25 C8 15 8 15 9.3125 17.0625 C9.539375 17.701875 9.76625 18.34125 10 19 C9.01 19.33 8.02 19.66 7 20 C6.505 18.02 6.505 18.02 6 16 C5.01 16.495 5.01 16.495 4 17 C3.34 16.67 2.68 16.34 2 16 C1.67 17.32 1.34 18.64 1 20 C0.34 19.01 -0.32 18.02 -1 17 C-1.61875 17.94875 -2.2375 18.8975 -2.875 19.875 C-5 23 -5 23 -7 25 C-10.625 24.625 -10.625 24.625 -14 24 C-14.8125 21.3125 -14.8125 21.3125 -15 18 C-13.37446717 16.29319053 -11.70884005 14.62339805 -10 13 C-10.0557408 10.77084833 -10.0557408 10.77084833 -11 9 C-11 8.67 -11 8.34 -11 8 C-17.65381976 7.32653202 -17.65381976 7.32653202 -23.5 9.875 C-23.995 10.57625 -24.49 11.2775 -25 12 C-25.66 12.66 -26.32 13.32 -27 14 C-26.52 8.6 -26.52 8.6 -24.375 6.125 C-21.09774552 4.5726163 -18.58171371 4.67438966 -15 5 C-14.01 5.66 -13.02 6.32 -12 7 C-11.9175 6.401875 -11.835 5.80375 -11.75 5.1875 C-9.83259956 -0.40491795 -5.31608396 -0.6645105 0 0 Z " fill="#C0CB94" transform="translate(247,242)"/>
<path d="M0 0 C0.63035156 0.22429687 1.26070313 0.44859375 1.91015625 0.6796875 C2.90015625 0.0196875 3.89015625 -0.6403125 4.91015625 -1.3203125 C5.90015625 -0.9903125 6.89015625 -0.6603125 7.91015625 -0.3203125 C7.25015625 -0.3203125 6.59015625 -0.3203125 5.91015625 -0.3203125 C6.40515625 0.6696875 6.40515625 0.6696875 6.91015625 1.6796875 C6.95014825 3.67928762 6.95362424 5.68015992 6.91015625 7.6796875 C6.58015625 7.6796875 6.25015625 7.6796875 5.91015625 7.6796875 C5.91015625 6.0296875 5.91015625 4.3796875 5.91015625 2.6796875 C5.25015625 2.6796875 4.59015625 2.6796875 3.91015625 2.6796875 C3.58015625 3.3396875 3.25015625 3.9996875 2.91015625 4.6796875 C-3.87153123 9.54481112 -8.89824413 10.32668131 -17.08984375 9.6796875 C-19.49997373 9.06872142 -21.75275812 8.29922375 -24.07421875 7.4140625 C-26.69947988 6.45757201 -29.32550778 6.03408955 -32.08984375 5.6796875 C-23.82203821 -4.24167914 -11.08801282 -6.15777119 0 0 Z " fill="#C6D098" transform="translate(261.08984375,287.3203125)"/>
<path d="M0 0 C0.33 1.32 0.66 2.64 1 4 C0.34 4 -0.32 4 -1 4 C-0.2236068 7.0745356 -0.2236068 7.0745356 2 9 C1.195625 9.20625 0.39125 9.4125 -0.4375 9.625 C-1.283125 10.07875 -2.12875 10.5325 -3 11 C-3.75063719 13.77158347 -4 16.14214519 -4 19 C-3.34 19.33 -2.68 19.66 -2 20 C-2.33 20.33 -2.66 20.66 -3 21 C-3.36760731 23.32817964 -3.70241581 25.6618385 -4 28 C-8.19994589 28 -11.86445966 27.7337249 -16 27 C-18 24 -18 24 -17.8125 21 C-16.99790027 17.99224715 -16.4044979 16.88178097 -14 15 C-14.53625 14.46375 -15.0725 13.9275 -15.625 13.375 C-17 11 -17 11 -16.4375 7.9375 C-14.8927074 4.78074991 -13.99622048 3.73603002 -11 2 C-8.421875 1.92578125 -8.421875 1.92578125 -5.75 2.3125 C-4.41195312 2.49232422 -4.41195312 2.49232422 -3.046875 2.67578125 C-2.37140625 2.78277344 -1.6959375 2.88976562 -1 3 C-0.67 2.01 -0.34 1.02 0 0 Z " fill="#BDC891" transform="translate(237,247)"/>
<path d="M0 0 C6.94630186 0.38127214 10.6114426 3.03417991 15.21484375 8.125 C19.60959779 14.0791829 19.35433196 20.01110105 19.21484375 27.125 C18.88484375 27.125 18.55484375 27.125 18.21484375 27.125 C18.00859375 25.990625 17.80234375 24.85625 17.58984375 23.6875 C16.30641818 18.47939625 13.55746745 14.27602998 10.21484375 10.125 C9.55484375 9.795 8.89484375 9.465 8.21484375 9.125 C9.06369141 10.24648438 9.06369141 10.24648438 9.9296875 11.390625 C10.66316406 12.37546875 11.39664063 13.3603125 12.15234375 14.375 C12.88324219 15.34953125 13.61414063 16.3240625 14.3671875 17.328125 C15.96829454 19.7517881 16.79120613 21.3007492 17.21484375 24.125 C12.71687262 22.43826082 8.48598073 20.30826108 4.21484375 18.125 C4.54484375 18.785 4.87484375 19.445 5.21484375 20.125 C0.66468482 18.60828036 -1.28572889 14.95608947 -3.78515625 11.125 C-3.45515625 10.465 -3.12515625 9.805 -2.78515625 9.125 C-2.12515625 9.455 -1.46515625 9.785 -0.78515625 10.125 C-1.01912109 9.16787109 -1.01912109 9.16787109 -1.2578125 8.19140625 C-1.45246094 7.36511719 -1.64710938 6.53882813 -1.84765625 5.6875 C-2.04488281 4.86378906 -2.24210938 4.04007812 -2.4453125 3.19140625 C-2.61353516 2.16853516 -2.61353516 2.16853516 -2.78515625 1.125 C-1.78515625 0.125 -1.78515625 0.125 0 0 Z " fill="#CFD8A4" transform="translate(199.78515625,260.875)"/>
<path d="M0 0 C1.43664001 3.24316122 2.2712954 6.53545707 3 10 C1.53626953 10.39832031 1.53626953 10.39832031 0.04296875 10.8046875 C-1.24226586 11.16117593 -2.52741784 11.51796239 -3.8125 11.875 C-5.07707031 12.22304688 -6.34164063 12.57109375 -7.64453125 12.9296875 C-11.08408713 13.85700295 -11.08408713 13.85700295 -14 16 C-16.48046875 15.9765625 -16.48046875 15.9765625 -19.1875 15.625 C-20.08855469 15.51414062 -20.98960937 15.40328125 -21.91796875 15.2890625 C-22.60503906 15.19367188 -23.29210937 15.09828125 -24 15 C-23.67515625 14.38253906 -23.3503125 13.76507813 -23.015625 13.12890625 C-21.89821146 11.07774581 -21.89821146 11.07774581 -21.75 8.9375 C-20.56536827 5.87720137 -17.86612165 5.40496159 -15 4 C-14.319375 3.13375 -13.63875 2.2675 -12.9375 1.375 C-11 -1 -11 -1 -8.625 -1.9375 C-5.00822102 -2.02361379 -3.16853987 -1.85979514 0 0 Z " fill="#C1CD95" transform="translate(271,267)"/>
<path d="M0 0 C0.99 0.33 1.98 0.66 3 1 C3.703125 2.9609375 3.703125 2.9609375 4.25 5.375 C5.23482847 8.84069194 5.23482847 8.84069194 7.74609375 11.26171875 C9.88113437 12.185968 9.88113437 12.185968 13 13 C12 16 12 16 9.0625 17.5 C8.051875 17.995 7.04125 18.49 6 19 C3.87491756 22.18762365 3.4979837 24.26512223 3 28 C1.08203125 27.77734375 1.08203125 27.77734375 -1 27 C-1.80078125 25.00390625 -1.80078125 25.00390625 -2.3125 22.5625 C-3.18585525 19.14274019 -3.18585525 19.14274019 -5.7421875 16.9609375 C-7.89239072 16.33676665 -7.89239072 16.33676665 -11 16 C-10.875 14.125 -10.875 14.125 -10 12 C-9.071875 11.79375 -8.14375 11.5875 -7.1875 11.375 C-3.8691155 10.33085249 -3.8691155 10.33085249 -2.71484375 7.65625 C-1.72270542 5.12434143 -0.81374429 2.59440828 0 0 Z " fill="#D4D9B9" transform="translate(158,211)"/>
<path d="M0 0 C0 1.98 0 3.96 0 6 C-1.32 6.33 -2.64 6.66 -4 7 C-4 7.66 -4 8.32 -4 9 C-5.10859375 9.19335938 -6.2171875 9.38671875 -7.359375 9.5859375 C-8.82297476 9.84863489 -10.28651327 10.11167367 -11.75 10.375 C-12.47960937 10.50132812 -13.20921875 10.62765625 -13.9609375 10.7578125 C-17.5938428 11.41834074 -20.8187005 12.07447662 -24 14 C-24 14.66 -24 15.32 -24 16 C-24.66 16 -25.32 16 -26 16 C-26 16.66 -26 17.32 -26 18 C-26.66 18 -27.32 18 -28 18 C-28.2475 18.61875 -28.495 19.2375 -28.75 19.875 C-30.20628639 22.35068687 -31.37812506 22.95125002 -34 24 C-33.67 22.02 -33.34 20.04 -33 18 C-32.01 17.67 -31.02 17.34 -30 17 C-30 16.34 -30 15.68 -30 15 C-30.66 14.67 -31.32 14.34 -32 14 C-31.34 14 -30.68 14 -30 14 C-30.185625 13.236875 -30.37125 12.47375 -30.5625 11.6875 C-31 9 -31 9 -30 6 C-31.299375 5.87625 -32.59875 5.7525 -33.9375 5.625 C-36.15234375 5.4140625 -36.15234375 5.4140625 -38 5 C-38.33 4.34 -38.66 3.68 -39 3 C-34.76052534 2.72939523 -31.72717715 2.97362391 -27.75 4.5 C-20.39004022 7.15008791 -12.23591386 6.98874703 -5 4 C-4.67 3.01 -4.34 2.02 -4 1 C-2 0 -2 0 0 0 Z " fill="#9AA570" transform="translate(267,290)"/>
<path d="M0 0 C-0.77601563 0.46148437 -1.55203125 0.92296875 -2.3515625 1.3984375 C-21.98634042 13.25428192 -39.47749985 27.18197532 -53 46 C-53.66 45.67 -54.32 45.34 -55 45 C-48.89415227 27.4652578 -28.74018641 13.7991912 -14 4 C-13.42515869 3.60482178 -12.85031738 3.20964355 -12.25805664 2.80249023 C-7.95213247 -0.14616759 -5.12073067 -1.70691022 0 0 Z " fill="#A5AD87" transform="translate(271,74)"/>
<path d="M0 0 C1.72766602 0.01353516 1.72766602 0.01353516 3.49023438 0.02734375 C6.30621193 0.05071286 9.12174158 0.08347435 11.9375 0.125 C11.9375 0.455 11.9375 0.785 11.9375 1.125 C4.3475 1.125 -3.2425 1.125 -11.0625 1.125 C-11.3925 2.115 -11.7225 3.105 -12.0625 4.125 C-12.7225 4.125 -13.3825 4.125 -14.0625 4.125 C-14.0625 4.785 -14.0625 5.445 -14.0625 6.125 C-12.4846875 6.0321875 -12.4846875 6.0321875 -10.875 5.9375 C-6.90433507 6.1327786 -5.22053031 6.82825068 -2.0625 9.125 C-2.3925 10.445 -2.7225 11.765 -3.0625 13.125 C-4.79057318 13.46395656 -6.52001974 13.79591525 -8.25 14.125 C-9.69439453 14.4034375 -9.69439453 14.4034375 -11.16796875 14.6875 C-13.8559206 15.09377612 -16.35021019 15.20433572 -19.0625 15.125 C-19.0625 14.135 -19.0625 13.145 -19.0625 12.125 C-19.7225 11.465 -20.3825 10.805 -21.0625 10.125 C-21.0625 9.465 -21.0625 8.805 -21.0625 8.125 C-19.7425 8.125 -18.4225 8.125 -17.0625 8.125 C-17.0625 7.465 -17.0625 6.805 -17.0625 6.125 C-22.87516619 6.91049543 -28.43127624 8.53182459 -34.0625 10.125 C-33.875 8.2578125 -33.875 8.2578125 -33.0625 6.125 C-30.875 4.9296875 -30.875 4.9296875 -28.0625 4 C-27.155 3.68804687 -26.2475 3.37609375 -25.3125 3.0546875 C-23.70375 2.59449219 -23.70375 2.59449219 -22.0625 2.125 C-21.42771729 1.94114746 -20.79293457 1.75729492 -20.13891602 1.56787109 C-13.43208482 -0.1669319 -6.89202081 -0.1034002 0 0 Z " fill="#C8D29D" transform="translate(307.0625,62.875)"/>
<path d="M0 0 C-0.66 0.33 -1.32 0.66 -2 1 C-2 1.66 -2 2.32 -2 3 C-2.7528125 3.1959375 -3.505625 3.391875 -4.28125 3.59375 C-12.6437671 5.94824511 -19.98614642 9.28177431 -27.6640625 13.29296875 C-31 15 -31 15 -34 16 C-34 16.66 -34 17.32 -34 18 C-39.75 21 -39.75 21 -42 21 C-42 21.66 -42 22.32 -42 23 C-43.45105125 24.26669638 -44.96353094 25.46339237 -46.5 26.625 C-54.8231951 32.84458517 -54.8231951 32.84458517 -61 41 C-61.99 41 -62.98 41 -64 41 C-61.89288777 36.32356615 -58.60299522 33.26014032 -55 29.6875 C-54.3208252 29.01323975 -53.64165039 28.33897949 -52.94189453 27.64428711 C-47.9747882 22.79202377 -42.94439526 18.61556968 -37 15 C-35.8331271 14.28288756 -34.66647549 13.56541496 -33.5 12.84765625 C-31.17282022 11.41619404 -28.83717336 10.00422148 -26.4921875 8.6015625 C-25.66976562 8.07304688 -24.84734375 7.54453125 -24 7 C-24 6.67 -24 6.34 -24 6 C-24.66 5.67 -25.32 5.34 -26 5 C-23.6875 3.4375 -23.6875 3.4375 -21 2 C-20.01 2.33 -19.02 2.66 -18 3 C-18.33 3.66 -18.66 4.32 -19 5 C-18.13117188 4.6390625 -17.26234375 4.278125 -16.3671875 3.90625 C-14.63855469 3.21015625 -14.63855469 3.21015625 -12.875 2.5 C-11.73804688 2.0359375 -10.60109375 1.571875 -9.4296875 1.09375 C-6.0528355 0.01684959 -3.51385272 -0.21360807 0 0 Z " fill="#D9E2B7" transform="translate(292,68)"/>
<path d="M0 0 C1.65 0.33 3.3 0.66 5 1 C5 1.66 5 2.32 5 3 C6.134375 2.814375 7.26875 2.62875 8.4375 2.4375 C10.2009375 2.2209375 10.2009375 2.2209375 12 2 C13 3 13 3 13.0625 6.0625 C13.041875 7.031875 13.02125 8.00125 13 9 C12.34 9 11.68 9 11 9 C10.67 9.99 10.34 10.98 10 12 C8.29296875 13.38671875 8.29296875 13.38671875 6.1875 14.6875 C5.50042969 15.12449219 4.81335938 15.56148437 4.10546875 16.01171875 C2 17 2 17 -2 17 C-2.96306898 14.11079306 -3.1955936 12.07752119 -3.25 9.0625 C-3.27578125 8.20785156 -3.3015625 7.35320312 -3.328125 6.47265625 C-2.93876562 3.53855522 -1.93350171 2.19299799 0 0 Z " fill="#FBFDF8" transform="translate(298,215)"/>
<path d="M0 0 C-1.14817934 2.58340351 -2.27524754 4.3067044 -4.1875 6.4375 C-4.785625 7.283125 -5.38375 8.12875 -6 9 C-5.80921875 9.79277344 -5.6184375 10.58554687 -5.421875 11.40234375 C-5 14 -5 14 -6.22265625 16.1328125 C-11.37781555 21.71483213 -11.37781555 21.71483213 -15 23.375 C-19.78329529 25.96595162 -22.13522812 30.48247512 -25 35 C-25.66 34.67 -26.32 34.34 -27 34 C-24.7969792 28.31695311 -21.91384728 23.5554666 -18.4375 18.5625 C-17.94314453 17.83095703 -17.44878906 17.09941406 -16.93945312 16.34570312 C-16.46314453 15.65541016 -15.98683594 14.96511719 -15.49609375 14.25390625 C-15.06482178 13.62814697 -14.6335498 13.0023877 -14.18920898 12.35766602 C-13.79677002 11.90963623 -13.40433105 11.46160645 -13 11 C-12.34 11 -11.68 11 -11 11 C-10.7525 10.443125 -10.505 9.88625 -10.25 9.3125 C-8.08771779 5.31227791 -5.04810776 0 0 0 Z " fill="#DBE5B9" transform="translate(186,332)"/>
<path d="M0 0 C0.33 0 0.66 0 1 0 C1.63110162 23.91173911 -2.3911474 43.04274958 -12 65 C-11.38125 65.28875 -10.7625 65.5775 -10.125 65.875 C-8 67 -8 67 -6 69 C-6 69.99 -6 70.98 -6 72 C-6.99 71.67 -7.98 71.34 -9 71 C-9.33 70.34 -9.66 69.68 -10 69 C-10.99 69.99 -10.99 69.99 -12 71 C-12.33 70.34 -12.66 69.68 -13 69 C-14.98 69.99 -14.98 69.99 -17 71 C-16.29518988 65.85593806 -14.1673708 61.31597559 -12.1875 56.5625 C-4.73642541 38.19188964 -1.16518118 19.76790138 0 0 Z " fill="#8A975C" transform="translate(370,136)"/>
<path d="M0 0 C0.63035156 0.22429687 1.26070313 0.44859375 1.91015625 0.6796875 C2.90015625 0.0196875 3.89015625 -0.6403125 4.91015625 -1.3203125 C5.90015625 -0.9903125 6.89015625 -0.6603125 7.91015625 -0.3203125 C7.25015625 -0.3203125 6.59015625 -0.3203125 5.91015625 -0.3203125 C6.40515625 0.6696875 6.40515625 0.6696875 6.91015625 1.6796875 C6.95014825 3.67928762 6.95362424 5.68015992 6.91015625 7.6796875 C6.58015625 7.6796875 6.25015625 7.6796875 5.91015625 7.6796875 C5.91015625 6.0296875 5.91015625 4.3796875 5.91015625 2.6796875 C5.25015625 2.6796875 4.59015625 2.6796875 3.91015625 2.6796875 C3.58015625 3.3396875 3.25015625 3.9996875 2.91015625 4.6796875 C-0.36511389 7.33109666 -2.50963924 8.59965929 -6.71484375 9.1796875 C-10.58417658 8.60645301 -11.76153047 7.75306103 -14.08984375 4.6796875 C-14.08984375 4.3496875 -14.08984375 4.0196875 -14.08984375 3.6796875 C-11.44984375 3.6796875 -8.80984375 3.6796875 -6.08984375 3.6796875 C-6.08984375 2.3596875 -6.08984375 1.0396875 -6.08984375 -0.3203125 C-13.72348321 0.01715022 -20.03279837 0.75034791 -27.08984375 3.6796875 C-27.74984375 3.3496875 -28.40984375 3.0196875 -29.08984375 2.6796875 C-19.58269811 -4.11113082 -10.39682342 -5.77391646 0 0 Z " fill="#CAD59E" transform="translate(261.08984375,287.3203125)"/>
<path d="M0 0 C0.66 0 1.32 0 2 0 C1.9278125 0.74378906 1.855625 1.48757812 1.78125 2.25390625 C1.11636228 10.07557145 0.89025637 17.84000384 0.875 25.6875 C0.87048828 26.63633057 0.86597656 27.58516113 0.86132812 28.56274414 C0.87487102 35.08985389 1.30745035 41.51069932 2 48 C1.01 48 0.02 48 -1 48 C-2.95162875 40.15215112 -3.33501611 32.62777033 -3.3125 24.5625 C-3.32861328 23.41201172 -3.34472656 22.26152344 -3.36132812 21.07617188 C-3.36556782 13.59311685 -2.37420849 7.09926967 0 0 Z " fill="#A4AE8A" transform="translate(191,176)"/>
<path d="M0 0 C0.33 0.66 0.66 1.32 1 2 C-0.06734019 4.2350286 -1.18200375 6.31062454 -2.4375 8.4375 C-2.98458618 9.37758911 -2.98458618 9.37758911 -3.54272461 10.33666992 C-6.99466469 16.16946281 -10.86858814 21.62834323 -15 27 C-15.67933594 27.88429688 -16.35867187 28.76859375 -17.05859375 29.6796875 C-18.69579689 31.79454548 -20.34192129 33.90149413 -22 36 C-22.99 35.67 -23.98 35.34 -25 35 C-23.22054913 30.95579349 -20.60470327 27.53921513 -18 24 C-19.98 24.99 -19.98 24.99 -22 26 C-20.55746343 22.63408134 -18.66735273 20.48952921 -16 18 C-16 19.32 -16 20.64 -16 22 C-15.46890625 21.18015625 -14.9378125 20.3603125 -14.390625 19.515625 C-13.33101562 17.89914062 -13.33101562 17.89914062 -12.25 16.25 C-11.55390625 15.18265625 -10.8578125 14.1153125 -10.140625 13.015625 C-8.25336282 10.35692718 -6.33237845 8.2546325 -4 6 C-2.63178949 4.02369593 -1.29048808 2.02790984 0 0 Z " fill="#DBE5B5" transform="translate(204,308)"/>
<path d="M0 0 C4.12486211 -0.08813808 8.24947739 -0.14077078 12.375 -0.1875 C14.10943359 -0.22520508 14.10943359 -0.22520508 15.87890625 -0.26367188 C25.74489378 -0.34728194 33.60466117 1.56380527 42.5 5.8125 C44.00046875 6.50279297 44.00046875 6.50279297 45.53125 7.20703125 C48.63466845 9.460938 49.14038916 11.33130372 50 15 C49.15179688 14.46890625 48.30359375 13.9378125 47.4296875 13.390625 C31.94802228 3.94671994 17.87788804 2.28169451 0 2 C0 1.34 0 0.68 0 0 Z " fill="#959F79" transform="translate(296,64)"/>
<path d="M0 0 C5.50226006 1.90164859 10.35839497 4.38242342 15.0625 7.8125 C14.7325 8.4725 14.4025 9.1325 14.0625 9.8125 C13.39863281 9.54566406 12.73476563 9.27882813 12.05078125 9.00390625 C8.4561727 7.57076166 4.8593533 6.14552606 1.25 4.75 C0.57646484 4.48123047 -0.09707031 4.21246094 -0.79101562 3.93554688 C-8.77938392 0.87015387 -16.48171031 0.66557199 -24.9375 0.75 C-25.80761719 0.75451172 -26.67773438 0.75902344 -27.57421875 0.76367188 C-29.69534293 0.7753264 -31.8164311 0.79325643 -33.9375 0.8125 C-33.9375 0.1525 -33.9375 -0.5075 -33.9375 -1.1875 C-25.21763989 -5.54743006 -8.99604832 -2.91577157 0 0 Z " fill="#DFE9BE" transform="translate(326.9375,68.1875)"/>
<path d="M0 0 C-0.66 0 -1.32 0 -2 0 C-2 0.66 -2 1.32 -2 2 C-1.01 2.33 -0.02 2.66 1 3 C1 3.66 1 4.32 1 5 C1.66 5 2.32 5 3 5 C3 4.34 3 3.68 3 3 C4.32 3.33 5.64 3.66 7 4 C-10.94490963 13.68707511 -10.94490963 13.68707511 -17.3515625 12.6015625 C-17.89554687 12.40304687 -18.43953125 12.20453125 -19 12 C-18.01 12 -17.02 12 -16 12 C-15.67 10.35 -15.34 8.7 -15 7 C-14.01 6.67 -13.02 6.34 -12 6 C-12 5.34 -12 4.68 -12 4 C-10.56988027 3.13353333 -9.13059381 2.28218171 -7.6875 1.4375 C-6.88699219 0.96183594 -6.08648437 0.48617188 -5.26171875 -0.00390625 C-3 -1 -3 -1 0 0 Z " fill="#9EAB76" transform="translate(297,271)"/>
<path d="M0 0 C0.33 0 0.66 0 1 0 C1.36923077 6.4 1.36923077 6.4 -0.5 9.4375 C-0.995 9.953125 -1.49 10.46875 -2 11 C-0.02 11 1.96 11 4 11 C4 11.33 4 11.66 4 12 C3.32195312 12.08636719 2.64390625 12.17273438 1.9453125 12.26171875 C-4.91148511 13.29688626 -11.26590949 14.937885 -17 19 C-17.70890955 20.31136169 -18.38335114 21.64280937 -19 23 C-21.125 23.75 -21.125 23.75 -23 24 C-22.62270119 21.35890834 -22.23374595 20.21907131 -20.2578125 18.3671875 C-19.55398437 17.87476563 -18.85015625 17.38234375 -18.125 16.875 C-17.07699219 16.12863281 -17.07699219 16.12863281 -16.0078125 15.3671875 C-14.34515052 14.23502467 -12.67369094 13.11579396 -11 12 C-15.74356266 7.37502641 -18.45772767 6.55442986 -25 6 C-25.33 5.34 -25.66 4.68 -26 4 C-22.7 3.67 -19.4 3.34 -16 3 C-15.649375 3.804375 -15.29875 4.60875 -14.9375 5.4375 C-13.1584039 8.3328046 -13.1584039 8.3328046 -9.5625 8.9375 C-5.33305019 9.13804845 -5.33305019 9.13804845 -2 7 C-0.70079254 3.45411499 -0.70079254 3.45411499 0 0 Z " fill="#69773D" transform="translate(248,272)"/>
<path d="M0 0 C0.99 0.33 1.98 0.66 3 1 C3.99 1 4.98 1 6 1 C6 1.66 6 2.32 6 3 C6.66 3.33 7.32 3.66 8 4 C6.58707905 8.8274799 4.57025846 12.7162359 2 17 C1.67 16.34 1.34 15.68 1 15 C0.01 15 -0.98 15 -2 15 C-2.66 14.01 -3.32 13.02 -4 12 C-4.66 11.67 -5.32 11.34 -6 11 C-5.57316368 9.72554546 -5.13302798 8.45554118 -4.6875 7.1875 C-4.44386719 6.47980469 -4.20023437 5.77210938 -3.94921875 5.04296875 C-2.93275742 2.85527627 -1.79179406 1.59103282 0 0 Z " fill="#9CAA6F" transform="translate(356,204)"/>
<path d="M0 0 C4.15786787 1.33109023 6.10380177 2.87974981 8.6875 6.375 C9.26886719 7.14585937 9.85023438 7.91671875 10.44921875 8.7109375 C13.39350363 13.05690965 14.24154535 15.68600238 14 21 C14.66 21 15.32 21 16 21 C16 18.36 16 15.72 16 13 C16.33 13 16.66 13 17 13 C17 16.63 17 20.26 17 24 C16.01 24.33 15.02 24.66 14 25 C12.828125 23.50260417 11.65625 22.00520833 10.484375 20.5078125 C8.80650617 18.803451 7.17669374 17.95811733 5 17 C4.87882813 17.78246094 4.75765625 18.56492187 4.6328125 19.37109375 C4.46523437 20.38300781 4.29765625 21.39492188 4.125 22.4375 C3.96257812 23.44683594 3.80015625 24.45617187 3.6328125 25.49609375 C3.42398438 26.32238281 3.21515625 27.14867187 3 28 C2.34 28.33 1.68 28.66 1 29 C1.02320313 27.95199219 1.04640625 26.90398437 1.0703125 25.82421875 C1.08907303 24.44531963 1.10727293 23.0664128 1.125 21.6875 C1.14175781 20.99720703 1.15851563 20.30691406 1.17578125 19.59570312 C1.21217794 15.82864604 1.14378864 14.21568296 -1 11 C3.97209562 12.76429199 8.43438061 15.3939166 13 18 C9.79886544 12.33476185 6.80564632 7.4051758 2 3 C1.34 2.01 0.68 1.02 0 0 Z " fill="#7D8954" transform="translate(204,267)"/>
<path d="M0 0 C0.66 0.33 1.32 0.66 2 1 C0.54712339 2.33927721 -0.91247259 3.67126847 -2.375 5 C-3.18710937 5.7425 -3.99921875 6.485 -4.8359375 7.25 C-7 9 -7 9 -9 9 C-9.28875 9.78375 -9.5775 10.5675 -9.875 11.375 C-11 14 -11 14 -13 16 C-13 15.34 -13 14.68 -13 14 C-13.7734375 14.53109375 -14.546875 15.0621875 -15.34375 15.609375 C-31.41621935 26.51001016 -31.41621935 26.51001016 -42 27 C-39.54872368 24.86845537 -37.08968956 23.55468836 -34.125 22.3125 C-23.03356753 17.46796628 -14.03668708 11.69474951 -5.42578125 3.22265625 C-3 1 -3 1 0 0 Z " fill="#D4DEAD" transform="translate(319,237)"/>
<path d="M0 0 C1.8125 1.4375 1.8125 1.4375 3 3 C3 3.66 3 4.32 3 5 C0.69 5 -1.62 5 -4 5 C-6.12046792 8.53411321 -6.53199289 11.94393835 -7 16 C-7.99 16.33 -8.98 16.66 -10 17 C-11.71689489 15.28310511 -11.25303054 13.09121863 -11.3125 10.75 C-11.28707949 6.83524191 -11.18168688 5.30281147 -9.125 1.875 C-5.74447831 -1.10781325 -4.2979998 -1.25795116 0 0 Z " fill="#8E9C64" transform="translate(171,384)"/>
<path d="M0 0 C-1.39262265 4.3326038 -2.84484371 8.62601896 -4.46484375 12.87890625 C-4.72700684 13.56726563 -4.98916992 14.255625 -5.25927734 14.96484375 C-5.78289165 16.33228877 -6.31037786 17.69825938 -6.84228516 19.0625 C-8.59953545 23.65156993 -9.88463849 28.21301783 -11 33 C-11.66 33 -12.32 33 -13 33 C-13.42671451 26.20417627 -11.99433439 21.08702928 -9.625 14.75 C-9.30789062 13.86570313 -8.99078125 12.98140625 -8.6640625 12.0703125 C-4.28811839 0 -4.28811839 0 0 0 Z " fill="#98A27C" transform="translate(205,141)"/>
<path d="M0 0 C1.30765478 3.92296433 1.1971417 6.86002433 1 11 C0.34 11.66 -0.32 12.32 -1 13 C-1 13.99 -1 14.98 -1 16 C-1 19 -1 19 -2.5 20.6875 C-2.995 21.120625 -3.49 21.55375 -4 22 C-4 21.01 -4 20.02 -4 19 C-6.31 18.34 -8.62 17.68 -11 17 C-9.68374664 12.31998807 -6.89746854 9.43267291 -3.65625 5.96484375 C-2.04545844 4.0539283 -1.0128931 2.27394502 0 0 Z " fill="#A5B176" transform="translate(236,296)"/>
<path d="M0 0 C2.9375 0.375 2.9375 0.375 4.9375 2.375 C5.26704432 5.47271665 5.39084601 7.54831023 3.875 10.3125 C0.81280347 11.99176907 -1.75620941 11.06121125 -5.0625 10.375 C-6.38325472 5.09198113 -6.38325472 5.09198113 -5 2 C-3.0625 0.375 -3.0625 0.375 0 0 Z " fill="#F4F1CB" transform="translate(238.0625,255.625)"/>
<path d="M0 0 C2 1 4 2 6 3 C6.33 2.34 6.66 1.68 7 1 C10.45809994 1.29640857 11.95510879 1.96346065 14.6875 4.1875 C17.08493165 7.10329524 18.07173741 9.37133713 19 13 C14.50202887 11.31326082 10.27113698 9.18326108 6 7 C6.33 7.66 6.66 8.32 7 9 C3.64564078 7.61198929 1.88709697 6.11371 0 3 C0 2.01 0 1.02 0 0 Z " fill="#C5D096" transform="translate(198,272)"/>
<path d="M0 0 C0 1.98 0 3.96 0 6 C-1.32 6.33 -2.64 6.66 -4 7 C-4 7.66 -4 8.32 -4 9 C-9.57067277 10.59162079 -14.21101581 11.20674944 -20 11 C-20.33 9.68 -20.66 8.36 -21 7 C-20.18015625 6.86722656 -19.3603125 6.73445313 -18.515625 6.59765625 C-17.43796875 6.42105469 -16.3603125 6.24445313 -15.25 6.0625 C-14.18265625 5.88847656 -13.1153125 5.71445312 -12.015625 5.53515625 C-11.02046875 5.35855469 -10.0253125 5.18195313 -9 5 C-7.84757812 4.81244141 -7.84757812 4.81244141 -6.671875 4.62109375 C-6.12015625 4.41613281 -5.5684375 4.21117187 -5 4 C-4.67 3.01 -4.34 2.02 -4 1 C-2 0 -2 0 0 0 Z " fill="#A7B184" transform="translate(267,290)"/>
<path d="M0 0 C1.72766602 0.01353516 1.72766602 0.01353516 3.49023438 0.02734375 C6.30621193 0.05071286 9.12174158 0.08347435 11.9375 0.125 C11.9375 0.455 11.9375 0.785 11.9375 1.125 C4.3475 1.125 -3.2425 1.125 -11.0625 1.125 C-11.3925 2.115 -11.7225 3.105 -12.0625 4.125 C-14.46425545 4.96651282 -16.72110132 5.61561557 -19.1875 6.1875 C-20.50275296 6.51111461 -21.81785796 6.83533117 -23.1328125 7.16015625 C-23.78024414 7.31629395 -24.42767578 7.47243164 -25.09472656 7.63330078 C-28.10747078 8.38611305 -31.08195614 9.25406186 -34.0625 10.125 C-33.875 8.2578125 -33.875 8.2578125 -33.0625 6.125 C-30.875 4.9296875 -30.875 4.9296875 -28.0625 4 C-27.155 3.68804687 -26.2475 3.37609375 -25.3125 3.0546875 C-23.70375 2.59449219 -23.70375 2.59449219 -22.0625 2.125 C-21.42771729 1.94114746 -20.79293457 1.75729492 -20.13891602 1.56787109 C-13.43208482 -0.1669319 -6.89202081 -0.1034002 0 0 Z " fill="#B0B79A" transform="translate(307.0625,62.875)"/>
<path d="M0 0 C0.66 0.33 1.32 0.66 2 1 C0.98679688 2.61068359 0.98679688 2.61068359 -0.046875 4.25390625 C-0.94798994 5.69005819 -1.84902748 7.1262587 -2.75 8.5625 C-3.1934375 9.26697266 -3.636875 9.97144531 -4.09375 10.69726562 C-6.83773325 15.07553302 -9.46701383 19.49625591 -12 24 C-13.1875 22.375 -13.1875 22.375 -14 20 C-12.625 16.75 -12.625 16.75 -11 14 C-11.99 14.33 -12.98 14.66 -14 15 C-13.34 13.35 -12.68 11.7 -12 10 C-11.34 10.66 -10.68 11.32 -10 12 C-9.52949219 11.30132812 -9.05898437 10.60265625 -8.57421875 9.8828125 C-7.64029297 8.51769531 -7.64029297 8.51769531 -6.6875 7.125 C-5.76517578 5.76761719 -5.76517578 5.76761719 -4.82421875 4.3828125 C-3 2 -3 2 0 0 Z " fill="#D3DDB0" transform="translate(171,354)"/>
<path d="M0 0 C3.70344028 1.23448009 5.30250982 3.23334341 8 6 C8.66 6.33 9.32 6.66 10 7 C10 8.32 10 9.64 10 11 C11.98 11 13.96 11 16 11 C15.34 11.66 14.68 12.32 14 13 C14.99 13.99 15.98 14.98 17 16 C10.99942858 15.69997143 7.29730798 12.92734106 3 9 C0.33895399 5.50737711 0 4.48597195 0 0 Z " fill="#98A278" transform="translate(151,410)"/>
<path d="M0 0 C7.57927395 3.43080299 14.04700969 9.39601292 19 16 C18.67 16.66 18.34 17.32 18 18 C17.113125 17.401875 16.22625 16.80375 15.3125 16.1875 C12.18289339 14.05679223 12.18289339 14.05679223 9.5 12.625 C5.29599686 9.89239796 1.61496677 7.02060509 0.125 2.125 C0.08375 1.42375 0.0425 0.7225 0 0 Z " fill="#ACB58F" transform="translate(345,75)"/>
<path d="M0 0 C-0.309375 1.175625 -0.61875 2.35125 -0.9375 3.5625 C-1.65290723 6.36451165 -2.10514064 8.91622555 -2.4375 11.8125 C-3 15 -3 15 -4.4375 16.9375 C-6 18 -6 18 -8 18 C-8.33 18.99 -8.66 19.98 -9 21 C-8.72793402 13.722235 -7.88489811 7.30379693 -4 1 C-2 0 -2 0 0 0 Z " fill="#CAD4A4" transform="translate(160,368)"/>
<path d="M0 0 C0 0.99 0 1.98 0 3 C1.98 3.66 3.96 4.32 6 5 C5.67 5.66 5.34 6.32 5 7 C3.33333333 7.33333333 1.66666667 7.66666667 0 8 C-0.33 8.66 -0.66 9.32 -1 10 C-1.72445313 9.65066406 -2.44890625 9.30132812 -3.1953125 8.94140625 C-10.30984218 5.53954009 -10.30984218 5.53954009 -18 4 C-17.67 3.34 -17.34 2.68 -17 2 C-16.35933594 2.10699219 -15.71867188 2.21398437 -15.05859375 2.32421875 C-8.97887266 3.16686266 -5.40813748 2.93920515 0 0 Z " fill="#88955E" transform="translate(264,279)"/>
<path d="M0 0 C0.66 0 1.32 0 2 0 C3.76462683 3.08809695 4 4.23312136 4 8 C0.7 8 -2.6 8 -6 8 C-5.67 10.97 -5.34 13.94 -5 17 C-6.32 16.67 -7.64 16.34 -9 16 C-9.80945261 12.24708334 -10.25049493 9.73582885 -9 6.0625 C-7 4 -7 4 -3.3125 3.6875 C-2.219375 3.790625 -1.12625 3.89375 0 4 C0 2.68 0 1.36 0 0 Z " fill="#98A076" transform="translate(204,254)"/>
<path d="M0 0 C0.67740234 -0.00773437 1.35480469 -0.01546875 2.05273438 -0.0234375 C6.78204982 -0.00530014 10.6205545 0.79058636 15.0625 2.25 C15.0625 2.58 15.0625 2.91 15.0625 3.25 C14.39718262 3.27505615 13.73186523 3.3001123 13.04638672 3.32592773 C10.00992513 3.44251136 6.97372654 3.56495351 3.9375 3.6875 C2.89078125 3.72681641 1.8440625 3.76613281 0.765625 3.80664062 C-4.20943842 4.01131096 -9.04520149 4.24276207 -13.9375 5.25 C-13.9375 4.26 -13.9375 3.27 -13.9375 2.25 C-9.23265287 0.40035651 -5.00224277 -0.05678989 0 0 Z " fill="#D2DBBC" transform="translate(305.9375,80.75)"/>
<path d="M0 0 C0.66 0 1.32 0 2 0 C0.64447629 3.61256797 -0.96608825 6.87171587 -2.9375 10.1875 C-3.44152344 11.04730469 -3.94554687 11.90710938 -4.46484375 12.79296875 C-6 15 -6 15 -9 17 C-9.061875 17.763125 -9.12375 18.52625 -9.1875 19.3125 C-10.36247264 23.19894795 -12.87027758 24.13152937 -16.28515625 26.08203125 C-16.85105469 26.38496094 -17.41695313 26.68789062 -18 27 C-18 23.23425395 -17.19918675 22.87506001 -14.625 20.25 C-10.21429799 15.50061909 -6.77141612 10.34238274 -3.32666016 4.87792969 C-2.26530283 3.22053711 -1.13812588 1.60564598 0 0 Z " fill="#D7E1B0" transform="translate(339,209)"/>
<path d="M0 0 C-3.02577653 8.10848488 -7.33398265 16.34398528 -14 22 C-13.86404994 15.74629708 -11.41466492 12.26787521 -7.69140625 7.33203125 C-5.96746444 5.09475405 -5.96746444 5.09475405 -4.90234375 2.76171875 C-3.66509162 0.34613125 -2.67751583 0 0 0 Z " fill="#9FA886" transform="translate(201,309)"/>
<path d="M0 0 C0 0.99 0 1.98 0 3 C-0.886875 2.896875 -1.77375 2.79375 -2.6875 2.6875 C-6.18712556 2.64046761 -6.18712556 2.64046761 -8.25 5.5 C-11 8 -11 8 -13.39453125 8.19140625 C-15.16044724 8.10608381 -16.92609609 8.01502146 -18.69140625 7.91796875 C-21.21249808 7.78749003 -21.21249808 7.78749003 -23.5 9.875 C-23.995 10.57625 -24.49 11.2775 -25 12 C-25.66 12.66 -26.32 13.32 -27 14 C-26.52 8.6 -26.52 8.6 -24.375 6.125 C-21.09774552 4.5726163 -18.58171371 4.67438966 -15 5 C-14.01 5.66 -13.02 6.32 -12 7 C-11.9175 6.401875 -11.835 5.80375 -11.75 5.1875 C-9.78755664 -0.53629314 -5.37405624 -0.31004171 0 0 Z " fill="#D6E2AF" transform="translate(247,242)"/>
<path d="M0 0 C0 0.66 0 1.32 0 2 C-1.32 1.67 -2.64 1.34 -4 1 C-4 0.34 -4 -0.32 -4 -1 C-11.80738233 -1.46637018 -18.50895246 -0.11990055 -26 2 C-27.3320216 2.33853705 -28.66482632 2.67411638 -30 3 C-22.12556322 -6.51494445 -9.79677934 -5.80549887 0 0 Z " fill="#D7E1AF" transform="translate(262,288)"/>
<path d="M0 0 C5.56 0.48347826 5.56 0.48347826 7.4375 2.6875 C8.21675429 5.89110097 7.96756287 7.83929462 7 11 C3.78600429 15.04045175 0.97821242 16.7265038 -4 18 C-2.38405168 15.95880212 -0.7143618 13.95927063 1 12 C1.66 12 2.32 12 3 12 C3.85650653 9.19954954 3.85650653 9.19954954 4 6 C2.14567913 3.72855926 2.14567913 3.72855926 0 2 C0 1.34 0 0.68 0 0 Z " fill="#A7AE8A" transform="translate(178,389)"/>
<path d="M0 0 C0.33 0 0.66 0 1 0 C2.48985596 5.31381957 3.95928952 10.63382699 5.25 16 C5.42015625 16.70125 5.5903125 17.4025 5.765625 18.125 C6 20 6 20 5 23 C3.84917315 20.75243216 2.70423142 18.50218252 1.5625 16.25 C1.23701172 15.61578125 0.91152344 14.9815625 0.57617188 14.328125 C-0.97063665 11.26640092 -2.3915078 8.39384379 -3 5 C-2.01 4.67 -1.02 4.34 0 4 C0 2.68 0 1.36 0 0 Z " fill="#84905C" transform="translate(207,215)"/>
<path d="M0 0 C0.33 1.65 0.66 3.3 1 5 C0.01 5.33 -0.98 5.66 -2 6 C-2.66 5.67 -3.32 5.34 -4 5 C-6.37402501 4.92883618 -8.75000677 4.91590915 -11.125 4.9375 C-12.40632812 4.94652344 -13.68765625 4.95554687 -15.0078125 4.96484375 C-15.99523437 4.97644531 -16.98265625 4.98804688 -18 5 C-12.07355883 0.01141316 -7.63870761 -0.15277415 0 0 Z " fill="#B3BE87" transform="translate(255,286)"/>
<path d="M0 0 C-1.53114133 4.23456275 -3.64889706 7.99195772 -6 11.8125 C-6.35578125 12.40998047 -6.7115625 13.00746094 -7.078125 13.62304688 C-7.99444442 15.11890414 -8.99135247 16.56477862 -10 18 C-10.66 18 -11.32 18 -12 18 C-11.6743424 11.81250565 -8.55295191 6.914033 -5 2 C-2 0 -2 0 0 0 Z " fill="#A1A986" transform="translate(216,122)"/>
<path d="M0 0 C0 0.99 0 1.98 0 3 C-0.763125 3.7425 -1.52625 4.485 -2.3125 5.25 C-5.1761977 7.8476588 -5.1761977 7.8476588 -6.4375 11.375 C-8.29473989 15.68379655 -10.81781727 18.61185075 -14 22 C-14.66 21.67 -15.32 21.34 -16 21 C-14.57642625 16.797793 -12.52379647 13.89402199 -9.6875 10.5 C-8.92824219 9.5821875 -8.16898438 8.664375 -7.38671875 7.71875 C-5.02516043 5.02866065 -2.5598056 2.50090742 0 0 Z " fill="#C6CCAE" transform="translate(232,98)"/>
<path d="M0 0 C0.33 0.66 0.66 1.32 1 2 C-0.13363092 4.3122472 -1.31297121 6.47936098 -2.625 8.6875 C-2.99310791 9.3180127 -3.36121582 9.94852539 -3.74047852 10.59814453 C-6.28107819 14.90498112 -8.90703744 19.06350219 -12 23 C-12.33 23 -12.66 23 -13 23 C-12.3835076 15.293845 -9.3022609 11.3022609 -4 6 C-2.63178949 4.02369593 -1.29048808 2.02790984 0 0 Z " fill="#D9E2B6" transform="translate(204,308)"/>
<path d="M0 0 C4.29154022 -0.0867562 8.58285668 -0.1403089 12.875 -0.1875 C14.70998047 -0.22520508 14.70998047 -0.22520508 16.58203125 -0.26367188 C18.33193359 -0.27817383 18.33193359 -0.27817383 20.1171875 -0.29296875 C21.73536377 -0.31653442 21.73536377 -0.31653442 23.38623047 -0.34057617 C24.68004639 -0.17199097 24.68004639 -0.17199097 26 0 C26.66 0.99 27.32 1.98 28 3 C14.14 2.505 14.14 2.505 0 2 C0 1.34 0 0.68 0 0 Z " fill="#899366" transform="translate(296,64)"/>
<path d="M0 0 C0.66 0.33 1.32 0.66 2 1 C-1.97110604 6.68772248 -5.95643847 12.3635203 -10 18 C-10.66 17.67 -11.32 17.34 -12 17 C-9.40081246 10.29683214 -6.27056074 3.94813083 0 0 Z " fill="#9CA47E" transform="translate(171,349)"/>
<path d="M0 0 C0.33 0 0.66 0 1 0 C1.02718316 2.85423192 1.04692705 5.70820015 1.0625 8.5625 C1.07087891 9.36236328 1.07925781 10.16222656 1.08789062 10.98632812 C1.10742247 15.77163104 0.80437018 20.28145051 0 25 C-1.65 25.66 -3.3 26.32 -5 27 C-4.5740509 22.99607849 -3.89633636 19.53032526 -2.5 15.75 C-0.67076249 10.58351943 -0.29505201 5.4432008 0 0 Z " fill="#AFB891" transform="translate(205,281)"/>
<path d="M0 0 C3 3.75 3 3.75 3 6 C3.66 6.66 4.32 7.32 5 8 C3.68 9.32 2.36 10.64 1 12 C0.34 11.67 -0.32 11.34 -1 11 C-1 10.34 -1 9.68 -1 9 C-1.99 9.66 -2.98 10.32 -4 11 C-4.33 10.01 -4.66 9.02 -5 8 C-4.34 7.01 -3.68 6.02 -3 5 C-2.835 4.29875 -2.67 3.5975 -2.5 2.875 C-2.335 2.25625 -2.17 1.6375 -2 1 C-1.34 0.67 -0.68 0.34 0 0 Z " fill="#A5B27C" transform="translate(324,249)"/>
<path d="M0 0 C0.33 0 0.66 0 1 0 C1.05864392 3.66659815 1.09381108 7.33307364 1.125 11 C1.14175781 12.02996094 1.15851563 13.05992187 1.17578125 14.12109375 C1.21401983 20.12455155 0.75493524 25.2515507 -1 31 C-1.66 31 -2.32 31 -3 31 C-2.94465088 30.45174561 -2.88930176 29.90349121 -2.83227539 29.33862305 C-1.34985828 14.6756477 -1.34985828 14.6756477 0 0 Z " fill="#75834E" transform="translate(357,135)"/>
<path d="M0 0 C0.66 0.33 1.32 0.66 2 1 C1.23405666 3.21003415 0.46202117 5.41795739 -0.3125 7.625 C-0.74175781 8.85476562 -1.17101562 10.08453125 -1.61328125 11.3515625 C-3.51614527 16.35797093 -5.62710466 20.82403434 -9 25 C-9.66 24.67 -10.32 24.34 -11 24 C-10.73783691 23.45061768 -10.47567383 22.90123535 -10.20556641 22.33520508 C-9.01043932 19.82839826 -7.81769989 17.32046249 -6.625 14.8125 C-6.2125 13.94818359 -5.8 13.08386719 -5.375 12.19335938 C-4.77558594 10.93168945 -4.77558594 10.93168945 -4.1640625 9.64453125 C-3.79748535 8.87471924 -3.4309082 8.10490723 -3.05322266 7.31176758 C-1.95556114 4.90245907 -0.96472664 2.46520068 0 0 Z " fill="#D7E2B1" transform="translate(351,183)"/>
<path d="M0 0 C0.66 0.66 1.32 1.32 2 2 C-0.05336006 4.13453242 -2.11680465 6.25739569 -4.1875 8.375 C-4.76564453 8.97828125 -5.34378906 9.5815625 -5.93945312 10.203125 C-9.08031481 13.39722163 -11.56898144 15.74829984 -16 17 C-14.40870074 12.8029482 -11.27939817 10.26767669 -8 7.375 C-6.91644685 6.40389105 -5.83310493 5.43254634 -4.75 4.4609375 C-3.8425 3.64882812 -2.935 2.83671875 -2 2 C-1.34 1.34 -0.68 0.68 0 0 Z " fill="#747D55" transform="translate(319,232)"/>
<path d="M0 0 C0.66 0 1.32 0 2 0 C2.33 5.94 2.66 11.88 3 18 C2.34 18 1.68 18 1 18 C-1.23157731 14.42771221 -1.23870158 11.46913776 -1.1875 7.3125 C-1.18105469 6.15363281 -1.17460937 4.99476563 -1.16796875 3.80078125 C-1 1 -1 1 0 0 Z " fill="#8D966C" transform="translate(149,391)"/>
<path d="M0 0 C-1.5532967 3.47064731 -3.6229487 6.22929462 -6 9.1875 C-6.70125 10.06792969 -7.4025 10.94835937 -8.125 11.85546875 C-10 14 -10 14 -12 15 C-11.71254769 9.10722765 -9.08870276 5.94631012 -5 2 C-2 0 -2 0 0 0 Z " fill="#949C79" transform="translate(186,332)"/>
<path d="M0 0 C0.99 0 1.98 0 3 0 C3.45510807 6.67491831 1.7672426 12.59374557 0 19 C-0.33 19 -0.66 19 -1 19 C-2.10765663 12.13252891 -1.700773 6.73281213 0 0 Z " fill="#99A37C" transform="translate(216,356)"/>
<path d="M0 0 C0.66 0.66 1.32 1.32 2 2 C1.14535156 2.84304687 0.29070312 3.68609375 -0.58984375 4.5546875 C-1.70586047 5.66132593 -2.82173872 6.76810402 -3.9375 7.875 C-4.50146484 8.43058594 -5.06542969 8.98617187 -5.64648438 9.55859375 C-8.69860028 12.4921571 -8.69860028 12.4921571 -11 16 C-11.99 16 -12.98 16 -14 16 C-12.34136495 11.67495164 -9.128959 8.90581175 -5.875 5.75 C-5.31167969 5.19570312 -4.74835938 4.64140625 -4.16796875 4.0703125 C-2.78313972 2.70895515 -1.39216796 1.35385141 0 0 Z " fill="#E1EABE" transform="translate(242,93)"/>
<path d="M0 0 C0.33 0 0.66 0 1 0 C1.06058594 0.59167969 1.12117187 1.18335938 1.18359375 1.79296875 C1.62012371 5.90978208 2.08671346 9.95544533 3 14 C4.98 14 6.96 14 9 14 C9 14.33 9 14.66 9 15 C5.94906497 15.28782406 3.04028175 15.44124443 0 15 C-2.125 12.6875 -2.125 12.6875 -3 10 C-2.67 9.01 -2.34 8.02 -2 7 C-1.34 7 -0.68 7 0 7 C0 4.69 0 2.38 0 0 Z " fill="#A6AF85" transform="translate(164,393)"/>
<path d="M0 0 C0.66 0 1.32 0 2 0 C2.70226141 1.24176695 3.38629109 2.49385599 4.0625 3.75 C4.44535156 4.44609375 4.82820312 5.1421875 5.22265625 5.859375 C6.1312406 8.36140628 5.88336837 9.5332355 5 12 C4.34 11.67 3.68 11.34 3 11 C2.01 11.33 1.02 11.66 0 12 C0 8.04 0 4.08 0 0 Z " fill="#CCD2AB" transform="translate(158,213)"/>
<path d="M0 0 C2.97 0.33 5.94 0.66 9 1 C9.103125 1.78375 9.20625 2.5675 9.3125 3.375 C9.77595022 6.33045181 9.77595022 6.33045181 13 8 C8.32538149 8.32613618 5.83325617 7.70582788 2 5 C2.99 4.67 3.98 4.34 5 4 C3.35 3.67 1.7 3.34 0 3 C0 2.01 0 1.02 0 0 Z " fill="#909C64" transform="translate(161,418)"/>
<path d="M0 0 C0.66 0.33 1.32 0.66 2 1 C2 1.99 2 2.98 2 4 C1.01 4.495 1.01 4.495 0 5 C-0.65213292 7.02463255 -0.65213292 7.02463255 -1 9 C-0.34 9.33 0.32 9.66 1 10 C-0.32 10.33 -1.64 10.66 -3 11 C-3 10.34 -3 9.68 -3 9 C-3.99 8.67 -4.98 8.34 -6 8 C-6.33 7.01 -6.66 6.02 -7 5 C-4.69 3.35 -2.38 1.7 0 0 Z " fill="#A2AE76" transform="translate(307,263)"/>
<path d="M0 0 C0.66 0 1.32 0 2 0 C2.83764268 1.95649397 3.66999059 3.91525556 4.5 5.875 C5.19609375 7.51082031 5.19609375 7.51082031 5.90625 9.1796875 C7 12 7 12 7 14 C5.1875 13.9375 5.1875 13.9375 3 13 C0.51387936 8.47170884 -0.38279888 5.23158464 0 0 Z " fill="#9FA781" transform="translate(194,232)"/>
<path d="M0 0 C0.33 0 0.66 0 1 0 C1.36011137 8.50262969 0.2527717 16.61090382 -1 25 C-1.33 25 -1.66 25 -2 25 C-2.02720824 22.31243045 -2.0469388 19.62514202 -2.0625 16.9375 C-2.07087891 16.18533203 -2.07925781 15.43316406 -2.08789062 14.65820312 C-2.10807096 9.99654679 -1.8532507 5.58846007 -1 1 C-0.67 0.67 -0.34 0.34 0 0 Z " fill="#D2DFAA" transform="translate(193,182)"/>
<path d="M0 0 C0.66 0 1.32 0 2 0 C2 0.66 2 1.32 2 2 C2.99 2.33 3.98 2.66 5 3 C5 3.99 5 4.98 5 6 C6.65 6 8.3 6 10 6 C7 8 7 8 5.1875 7.8125 C2.34008213 6.75488765 -0.31017712 5.40604378 -3 4 C-2.34 3.67 -1.68 3.34 -1 3 C-0.67 2.01 -0.34 1.02 0 0 Z " fill="#A6B27D" transform="translate(266,278)"/>
<path d="M0 0 C0.99 0.33 1.98 0.66 3 1 C5.12310361 6.36363018 5.23332331 11.28357882 5 17 C4.67 17 4.34 17 4 17 C3.62875 15.2365625 3.62875 15.2365625 3.25 13.4375 C2.18103871 9.09193997 0.36422459 5.78275934 -2 2 C-1.34 2 -0.68 2 0 2 C0 1.34 0 0.68 0 0 Z " fill="#C5D297" transform="translate(214,271)"/>
<path d="M0 0 C4.15786787 1.33109023 6.10380177 2.87974981 8.6875 6.375 C9.26886719 7.14585937 9.85023438 7.91671875 10.44921875 8.7109375 C13.13079351 12.66913098 14.26846978 15.16754398 14 20 C12 18 12 18 11.25 15.375 C9.00309645 9.30836041 4.72882952 4.36507341 0 0 Z " fill="#9BA66C" transform="translate(204,267)"/>
<path d="M0 0 C0.433125 0.495 0.86625 0.99 1.3125 1.5 C2.99740483 3.33218192 2.99740483 3.33218192 6 3 C5.67 3.99 5.34 4.98 5 6 C3.68 6 2.36 6 1 6 C1 6.66 1 7.32 1 8 C-1 8 -1 8 -2.625 6.625 C-4 5 -4 5 -4 3 C-2 1.375 -2 1.375 0 0 Z " fill="#939F66" transform="translate(299,268)"/>
<path d="M0 0 C1.125 3.75 1.125 3.75 0 6 C0.66 6.33 1.32 6.66 2 7 C1.01 10.3 0.02 13.6 -1 17 C-1.66 17 -2.32 17 -3 17 C-3.34548714 10.66606918 -2.29342747 5.89738492 0 0 Z " fill="#A5AF88" transform="translate(195,157)"/>
<path d="M0 0 C0.66 0.33 1.32 0.66 2 1 C-0.31 4.3 -2.62 7.6 -5 11 C-5.66 10.67 -6.32 10.34 -7 10 C-5.76075855 5.04303419 -4.21422242 2.88341534 0 0 Z " fill="#DCE5BA" transform="translate(171,354)"/>
<path d="M0 0 C-0.99 0.495 -0.99 0.495 -2 1 C-2 1.66 -2 2.32 -2 3 C-5.96 3.99 -9.92 4.98 -14 6 C-14 5.01 -14 4.02 -14 3 C-9.07015675 0.96006486 -5.42039575 -0.40652968 0 0 Z " fill="#DFE8BD" transform="translate(292,68)"/>
<path d="M0 0 C2.6612194 0.8648963 3.82026042 1.60231634 5.5 3.8125 C5.5 4.4725 5.5 5.1325 5.5 5.8125 C3.19 5.4825 0.88 5.1525 -1.5 4.8125 C-1.17 3.8225 -0.84 2.8325 -0.5 1.8125 C-1.28375 2.286875 -2.0675 2.76125 -2.875 3.25 C-4.38948678 4.15148023 -5.9235897 5.02429485 -7.5 5.8125 C-5.89164332 2.10090766 -4.45826338 -0.33436975 0 0 Z " fill="#818D56" transform="translate(168.5,383.1875)"/>
<path d="M0 0 C-0.71027344 0.39832031 -1.42054688 0.79664063 -2.15234375 1.20703125 C-3.07144531 1.73683594 -3.99054688 2.26664062 -4.9375 2.8125 C-5.85402344 3.33457031 -6.77054688 3.85664063 -7.71484375 4.39453125 C-10.284062 5.86140987 -10.284062 5.86140987 -11 9 C-13.0625 9.6875 -13.0625 9.6875 -15 10 C-14.62342801 7.3292356 -14.21955159 6.20604073 -12.22265625 4.33203125 C-11.50980469 3.83058594 -10.79695312 3.32914062 -10.0625 2.8125 C-9.35222656 2.30332031 -8.64195312 1.79414063 -7.91015625 1.26953125 C-4.7360816 -0.84002757 -3.63394129 -1.09018239 0 0 Z " fill="#5B6433" transform="translate(240,286)"/>
<path d="M0 0 C0.433125 0.474375 0.86625 0.94875 1.3125 1.4375 C3.02309613 3.23686957 3.02309613 3.23686957 6 4 C5.01 4.99 4.02 5.98 3 7 C0.69 6.34 -1.62 5.68 -4 5 C-3.6875 3.0625 -3.6875 3.0625 -3 1 C-2.01 0.67 -1.02 0.34 0 0 Z " fill="#93A167" transform="translate(352,215)"/>
<path d="M0 0 C1.65 0.33 3.3 0.66 5 1 C4.21625 1.495 3.4325 1.99 2.625 2.5 C-0.90031449 5.85744237 -1.13336821 8.27291749 -2 13 C-2.99 12.67 -3.98 12.34 -5 12 C-4.34 12 -3.68 12 -3 12 C-3 9.69 -3 7.38 -3 5 C-3.66 5 -4.32 5 -5 5 C-5 4.34 -5 3.68 -5 3 C-3.68 3 -2.36 3 -1 3 C-0.67 2.01 -0.34 1.02 0 0 Z " fill="#DADDC4" transform="translate(163,226)"/>
<path d="M0 0 C0 0.66 0 1.32 0 2 C-4.873261 3.5912689 -8.80790596 4.21192221 -14 4 C-12 1 -12 1 -9.25 0.3125 C-6.13994266 0.01345603 -3.12201686 -0.07433373 0 0 Z " fill="#AAB490" transform="translate(183,423)"/>
<path d="M0 0 C0.33 0 0.66 0 1 0 C1.77112541 4.72314313 2.09764874 9.21521178 2 14 C1.34 14 0.68 14 0 14 C-0.99 11.03 -1.98 8.06 -3 5 C-2.01 4.67 -1.02 4.34 0 4 C0 2.68 0 1.36 0 0 Z " fill="#8F9C65" transform="translate(207,215)"/>
<path d="M0 0 C0.33 0.66 0.66 1.32 1 2 C1.99 1.67 2.98 1.34 4 1 C4 3.64 4 6.28 4 9 C3.01 9.33 2.02 9.66 1 10 C0.63720544 8.71073008 0.28503302 7.41846728 -0.0625 6.125 C-0.35833984 5.04605469 -0.35833984 5.04605469 -0.66015625 3.9453125 C-1 2 -1 2 0 0 Z " fill="#829158" transform="translate(203,210)"/>
<path d="M0 0 C0.66 0 1.32 0 2 0 C2.125 5.75 2.125 5.75 1 8 C0.34 8 -0.32 8 -1 8 C-1.33 9.65 -1.66 11.3 -2 13 C-2.33 13 -2.66 13 -3 13 C-2.88610125 11.20759337 -2.75852313 9.41605165 -2.625 7.625 C-2.55539063 6.62726563 -2.48578125 5.62953125 -2.4140625 4.6015625 C-2 2 -2 2 0 0 Z " fill="#8D986A" transform="translate(154,376)"/>
<path d="M0 0 C0.33 0.66 0.66 1.32 1 2 C-0.4117783 2.53394179 -1.82970244 3.05165104 -3.25 3.5625 C-4.03890625 3.85253906 -4.8278125 4.14257812 -5.640625 4.44140625 C-8.19103452 5.04522837 -9.55322229 4.8473932 -12 4 C-11.01 4 -10.02 4 -9 4 C-8.67 3.01 -8.34 2.02 -8 1 C-4.68510482 -0.74468167 -3.63361056 -1.21120352 0 0 Z " fill="#A9B38C" transform="translate(290,279)"/>
<path d="M0 0 C0 0.99 0 1.98 0 3 C-3.63 3.33 -7.26 3.66 -11 4 C-10.67 3.01 -10.34 2.02 -10 1 C-6.56484998 0.37542727 -3.50935186 0 0 0 Z " fill="#F3F9E4" transform="translate(272,259)"/>
<path d="M0 0 C0.33 0.99 0.66 1.98 1 3 C2.32 2.34 3.64 1.68 5 1 C5.625 3.3125 5.625 3.3125 6 6 C5.01 7.485 5.01 7.485 4 9 C3.34 9 2.68 9 2 9 C2 7.68 2 6.36 2 5 C1.34 5 0.68 5 0 5 C-0.33 5.99 -0.66 6.98 -1 8 C-0.67 5.36 -0.34 2.72 0 0 Z " fill="#CED8AE" transform="translate(191,171)"/>
<path d="M0 0 C0.66 0 1.32 0 2 0 C0.9318153 5.11365014 -0.23107476 10.07227969 -2 15 C-2.33 15 -2.66 15 -3 15 C-3.36263859 9.1977825 -2.25684543 5.36000789 0 0 Z " fill="#D9E3B3" transform="translate(199,156)"/>
<path d="M0 0 C2.99220268 1.36370299 5.29026529 2.94908083 7.75 5.125 C8.67039062 5.93324219 8.67039062 5.93324219 9.609375 6.7578125 C10.06828125 7.16773437 10.5271875 7.57765625 11 8 C10.34 8.66 9.68 9.32 9 10 C8.608125 9.360625 8.21625 8.72125 7.8125 8.0625 C5.61527704 5.56221181 4.24208567 5.35049575 1 5 C0.67 3.35 0.34 1.7 0 0 Z " fill="#ACB592" transform="translate(345,75)"/>
<path d="M0 0 C0.33 0.99 0.66 1.98 1 3 C-4.445 4.485 -4.445 4.485 -10 6 C-9.67 4.68 -9.34 3.36 -9 2 C-5.82254537 0.61849799 -3.46877176 0 0 0 Z " fill="#9CA37F" transform="translate(283,67)"/>
<path d="M0 0 C2.875 0.25 2.875 0.25 6 1 C7.4375 2.75 7.4375 2.75 8 5 C7.625 7.75 7.625 7.75 7 10 C6.34 9.67 5.68 9.34 5 9 C5 7.68 5 6.36 5 5 C2.53673288 3.3553326 2.53673288 3.3553326 0 2 C0 1.34 0 0.68 0 0 Z " fill="#869060" transform="translate(178,389)"/>
<path d="M0 0 C3.3866371 3.3866371 3.41963254 4.1337532 3.6875 8.6875 C3.75324219 9.68136719 3.81898438 10.67523438 3.88671875 11.69921875 C3.92410156 12.45847656 3.96148437 13.21773437 4 14 C3.01 14 2.02 14 1 14 C0.67 9.38 0.34 4.76 0 0 Z " fill="#939E70" transform="translate(189,210)"/>
<path d="M0 0 C0.66 0 1.32 0 2 0 C1.343621 4.48525648 0.29925791 8.66914029 -1 13 C-1.33 13 -1.66 13 -2 13 C-2.74926071 9.33694766 -3.2380014 6.57644848 -2 3 C-1.34 3 -0.68 3 0 3 C0 2.01 0 1.02 0 0 Z " fill="#AAB490" transform="translate(213,375)"/>
<path d="M0 0 C0.66 0 1.32 0 2 0 C2.125 7.75 2.125 7.75 1 10 C0.01 10 -0.98 10 -2 10 C-1.54177532 6.53058454 -1.10868317 3.32604951 0 0 Z " fill="#8D986F" transform="translate(222,332)"/>
<path d="M0 0 C0.66 0 1.32 0 2 0 C3.42944945 2.35438733 4.08661261 3.48032433 3.625 6.25 C3.41875 6.8275 3.2125 7.405 3 8 C2.01 7.34 1.02 6.68 0 6 C-2.32387947 5.60612212 -4.65793749 5.26513915 -7 5 C-7 4.67 -7 4.34 -7 4 C-4.69 4 -2.38 4 0 4 C0 2.68 0 1.36 0 0 Z " fill="#AAB387" transform="translate(204,254)"/>
<path d="M0 0 C3.53647504 1.67517239 4.7911563 2.49280817 6.3125 6.1875 C6.539375 7.115625 6.76625 8.04375 7 9 C6.34 9 5.68 9 5 9 C4.67 10.32 4.34 11.64 4 13 C3.67 10.03 3.34 7.06 3 4 C2.01 3.67 1.02 3.34 0 3 C0 2.01 0 1.02 0 0 Z " fill="#859061" transform="translate(247,240)"/>
<path d="M0 0 C-1.56641751 4.30764815 -3.68336156 8.06171464 -6 12 C-7 10 -7 10 -6.51171875 7.87109375 C-6.23972656 7.06800781 -5.96773437 6.26492188 -5.6875 5.4375 C-5.42324219 4.63183594 -5.15898437 3.82617188 -4.88671875 2.99609375 C-3.72050221 0.37082215 -2.83976396 0 0 0 Z " fill="#8E996A" transform="translate(201,309)"/>
<path d="M0 0 C0.66 0 1.32 0 2 0 C2 1.98 2 3.96 2 6 C-0.64738916 7.4606285 -1.89448334 8 -5 8 C-4 5 -4 5 -1 3 C-0.67 2.01 -0.34 1.02 0 0 Z " fill="#8C966F" transform="translate(265,290)"/>
<path d="M0 0 C5.23610116 -0.31416607 8.51492303 0.22352378 13 3 C13.33 3.66 13.66 4.32 14 5 C11.8520106 4.55187982 9.70663439 4.09121652 7.5625 3.625 C5.77005859 3.24214844 5.77005859 3.24214844 3.94140625 2.8515625 C2.48541016 2.43003906 2.48541016 2.43003906 1 2 C0.67 1.34 0.34 0.68 0 0 Z " fill="#808B53" transform="translate(228,293)"/>
<path d="M0 0 C2.49223987 0.99689595 3.76416902 1.61522314 5.1875 3.9375 C5.84445608 5.60515774 6.43319548 7.29958645 7 9 C3.64564078 7.61198929 1.88709697 6.11371 0 3 C0 2.01 0 1.02 0 0 Z " fill="#A6B18A" transform="translate(198,272)"/>
<path d="M0 0 C0.66 0.99 1.32 1.98 2 3 C0.68 4.32 -0.64 5.64 -2 7 C-5 6 -5 6 -6.1875 3.9375 C-6.5896875 2.9784375 -6.5896875 2.9784375 -7 2 C-5.68 2 -4.36 2 -3 2 C-2.01 1.34 -1.02 0.68 0 0 Z " fill="#DEE5CA" transform="translate(221,232)"/>
<path d="M0 0 C1.86351199 2.79526798 2.34308907 3.84045627 2.75 7 C2.84796875 7.680625 2.9459375 8.36125 3.046875 9.0625 C3 11 3 11 1 14 C-0.04976964 10.85069107 -0.10131595 8.61185544 -0.0625 5.3125 C-0.05347656 4.31863281 -0.04445313 3.32476562 -0.03515625 2.30078125 C-0.02355469 1.54152344 -0.01195312 0.78226562 0 0 Z " fill="#F1F6E2" transform="translate(352,117)"/>
<path d="M0 0 C0.99 0.33 1.98 0.66 3 1 C3 2.65 3 4.3 3 6 C1.35 6.33 -0.3 6.66 -2 7 C-2.125 4.625 -2.125 4.625 -2 2 C-1.34 1.34 -0.68 0.68 0 0 Z " fill="#949F70" transform="translate(229,314)"/>
<path d="M0 0 C-0.1875 2.3125 -0.1875 2.3125 -1 5 C-3.5625 6.8125 -3.5625 6.8125 -6 8 C-5.6875 5.125 -5.6875 5.125 -5 2 C-2 0 -2 0 0 0 Z " fill="#909A6E" transform="translate(239,306)"/>
<path d="M0 0 C1 3 1 3 0.22265625 5.04296875 C-0.16019531 5.75066406 -0.54304688 6.45835937 -0.9375 7.1875 C-1.31777344 7.90292969 -1.69804687 8.61835938 -2.08984375 9.35546875 C-2.54037109 10.16951172 -2.54037109 10.16951172 -3 11 C-3.33 11 -3.66 11 -4 11 C-3.54177532 7.53058454 -3.10868317 4.32604951 -2 1 C-1.34 0.67 -0.68 0.34 0 0 Z " fill="#808C5E" transform="translate(350,182)"/>
<path d="M0 0 C0.99 0.33 1.98 0.66 3 1 C3.33 3.97 3.66 6.94 4 10 C2.35 9.67 0.7 9.34 -1 9 C-0.7525 8.1028125 -0.7525 8.1028125 -0.5 7.1875 C0.1114124 4.88655664 0.1114124 4.88655664 0 2 C0 1.34 0 0.68 0 0 Z " fill="#8D9C62" transform="translate(368,104)"/>
<path d="M0 0 C4.03174806 0.27489191 5.56894631 0.53491576 8.375 3.5625 C8.91125 4.366875 9.4475 5.17125 10 6 C9.67 6.66 9.34 7.32 9 8 C7.49460339 7.05016642 5.99579653 6.08988109 4.5 5.125 C3.6646875 4.59132813 2.829375 4.05765625 1.96875 3.5078125 C1.3190625 3.01023437 0.669375 2.51265625 0 2 C0 1.34 0 0.68 0 0 Z " fill="#768254" transform="translate(329,85)"/>
<path d="M0 0 C4.29238623 1.65091778 6.8793915 4.73754566 10 8 C9.67 8.66 9.34 9.32 9 10 C7.49410612 8.71520959 5.99542625 7.42195918 4.5 6.125 C3.6646875 5.40570313 2.829375 4.68640625 1.96875 3.9453125 C1.3190625 3.30335937 0.669375 2.66140625 0 2 C0 1.34 0 0.68 0 0 Z " fill="#DBE8B2" transform="translate(343,78)"/>
<path d="M0 0 C-1.28813342 0.83878455 -2.58063256 1.67086783 -3.875 2.5 C-4.59429687 2.9640625 -5.31359375 3.428125 -6.0546875 3.90625 C-8 5 -8 5 -10 5 C-9.3125 2.5625 -9.3125 2.5625 -8 0 C-4.71071522 -1.1807689 -3.34715311 -1.1157177 0 0 Z " fill="#949B73" transform="translate(271,74)"/>
<path d="M0 0 C2.3125 -0.3125 2.3125 -0.3125 5 0 C6.875 2.375 6.875 2.375 8 5 C7.67 5.66 7.34 6.32 7 7 C5.82780457 6.21654285 4.66236332 5.42297164 3.5 4.625 C2.8503125 4.18414062 2.200625 3.74328125 1.53125 3.2890625 C1.0259375 2.86367187 0.520625 2.43828125 0 2 C0 1.34 0 0.68 0 0 Z " fill="#959E77" transform="translate(338,72)"/>
<path d="M0 0 C0 0.66 0 1.32 0 2 C0.99 2.33 1.98 2.66 3 3 C3 3.33 3 3.66 3 4 C0.36 4.33 -2.28 4.66 -5 5 C-5 3.68 -5 2.36 -5 1 C-2 0 -2 0 0 0 Z " fill="#A4AB87" transform="translate(178,389)"/>
<path d="M0 0 C0.33 0.99 0.66 1.98 1 3 C-4.94 3.495 -4.94 3.495 -11 4 C-7.63661956 0.63661956 -4.71164284 0 0 0 Z " fill="#859062" transform="translate(271,262)"/>
<path d="M0 0 C0.99 0.33 1.98 0.66 3 1 C1.68775452 4.93673644 0.08089673 7.22719294 -3 10 C-4 7 -4 7 -3.22265625 5.17578125 C-2.1484375 3.45052083 -1.07421875 1.72526042 0 0 Z " fill="#A1AA82" transform="translate(354,220)"/>
<path d="M0 0 C-0.66 2.31 -1.32 4.62 -2 7 C-3.32 7.33 -4.64 7.66 -6 8 C-5.62403791 5.21788056 -5.32681541 3.4120716 -3.5625 1.1875 C-2 0 -2 0 0 0 Z " fill="#A6AF8C" transform="translate(205,141)"/>
<path d="M0 0 C-1.1858237 3.37503669 -2.27573689 5.64722731 -5 8 C-5.66 7.67 -6.32 7.34 -7 7 C-4.60526316 0 -4.60526316 0 0 0 Z " fill="#9AA47B" transform="translate(223,112)"/>
<path d="M0 0 C0.99 0.99 1.98 1.98 3 3 C2.67 3.66 2.34 4.32 2 5 C1.34 4.67 0.68 4.34 0 4 C0.350625 4.598125 0.70125 5.19625 1.0625 5.8125 C2 8 2 8 1 11 C0.34 10.67 -0.32 10.34 -1 10 C-1.86159454 6.76902047 -2.30597523 4.77513726 -1.0625 1.625 C-0.5365625 0.820625 -0.5365625 0.820625 0 0 Z " fill="#AAB781" transform="translate(368,100)"/>
<path d="M0 0 C0.66 0 1.32 0 2 0 C1.88570603 1.77155654 1.75816963 3.54226229 1.625 5.3125 C1.52058594 6.79169922 1.52058594 6.79169922 1.4140625 8.30078125 C1 11 1 11 -1 14 C-1.02685938 11.85423363 -1.04633088 9.70837355 -1.0625 7.5625 C-1.07410156 6.36753906 -1.08570313 5.17257812 -1.09765625 3.94140625 C-1 1 -1 1 0 0 Z " fill="#B1B998" transform="translate(220,342)"/>
<path d="M0 0 C1.20628008 2.33214148 2.1654738 4.49642139 3 7 C1.35 7.66 -0.3 8.32 -2 9 C-1.125 2.25 -1.125 2.25 0 0 Z " fill="#A4AF82" transform="translate(202,299)"/>
<path d="M0 0 C0.33 0.66 0.66 1.32 1 2 C3.97 1.34 6.94 0.68 10 0 C9.34 1.65 8.68 3.3 8 5 C5.36 4.34 2.72 3.68 0 3 C0 2.01 0 1.02 0 0 Z " fill="#D7DDBE" transform="translate(147,224)"/>
<path d="M0 0 C-0.99 0 -1.98 0 -3 0 C-3 1.65 -3 3.3 -3 5 C-4.32 5 -5.64 5 -7 5 C-7.33 3.68 -7.66 2.36 -8 1 C-4.93251126 -0.86240388 -3.40254489 -1.2151946 0 0 Z " fill="#919E67" transform="translate(354,225)"/>
<path d="M0 0 C2.5 1.8125 2.5 1.8125 5 4 C5 4.99 5 5.98 5 7 C4.01 6.67 3.02 6.34 2 6 C1.67 5.34 1.34 4.68 1 4 C0.34 4.66 -0.32 5.32 -1 6 C-1.66 4.68 -2.32 3.36 -3 2 C-2.01 1.34 -1.02 0.68 0 0 Z " fill="#93A065" transform="translate(359,201)"/>
<path d="M0 0 C2.51699845 2.51699845 3.10964078 4.57554146 4 8 C3.625 10.375 3.625 10.375 3 12 C2.34 11.67 1.68 11.34 1 11 C0.29396596 7.25801961 0 3.81207261 0 0 Z " fill="#B2BA92" transform="translate(371,105)"/>
<path d="M0 0 C-0.33 0.99 -0.66 1.98 -1 3 C-3.64 3 -6.28 3 -9 3 C-7 0 -7 0 -5.0625 -0.75 C-3 -1 -3 -1 0 0 Z " fill="#748047" transform="translate(260,96)"/>
<path d="M0 0 C3.73487777 0.4979837 5.81237635 0.87491756 9 3 C8.34 3 7.68 3 7 3 C6.67 3.66 6.34 4.32 6 5 C3.69 4.34 1.38 3.68 -1 3 C-0.67 2.01 -0.34 1.02 0 0 Z " fill="#A4AB88" transform="translate(323,65)"/>
<path d="M0 0 C0.66 0.33 1.32 0.66 2 1 C1.21654285 2.17219543 0.42297164 3.33763668 -0.375 4.5 C-0.81585938 5.1496875 -1.25671875 5.799375 -1.7109375 6.46875 C-2.13632813 6.9740625 -2.56171875 7.479375 -3 8 C-3.66 8 -4.32 8 -5 8 C-4.64950425 4.75791433 -4.43778819 3.38472296 -1.9375 1.1875 C-1.298125 0.795625 -0.65875 0.40375 0 0 Z " fill="#929C73" transform="translate(171,349)"/>
<path d="M0 0 C0.3125 2.25 0.3125 2.25 0 5 C-2.5 7.3125 -2.5 7.3125 -5 9 C-4.38709677 3.48387097 -4.38709677 3.48387097 -2.5 1.125 C-1 0 -1 0 0 0 Z " fill="#9BA27F" transform="translate(179,338)"/>
<path d="M0 0 C0.66 0.33 1.32 0.66 2 1 C1.0919838 2.13199353 0.17316174 3.25532363 -0.75 4.375 C-1.26046875 5.00148437 -1.7709375 5.62796875 -2.296875 6.2734375 C-4.08199481 8.08312318 -5.67949644 9.00117455 -8 10 C-6.34908222 5.70761377 -3.26245434 3.1206085 0 0 Z " fill="#88965B" transform="translate(328,242)"/>
<path d="M0 0 C0.721875 0.639375 1.44375 1.27875 2.1875 1.9375 C4.98191184 3.98673535 6.61663274 4.61332946 10 5 C10 5.33 10 5.66 10 6 C6.8125 6.875 6.8125 6.875 3 7 C0.78700108 5.21974097 -0.38796831 3.39362281 -2 1 C-1.34 0.67 -0.68 0.34 0 0 Z " fill="#D5DFBC" transform="translate(220,239)"/>
<path d="M0 0 C0.99 0 1.98 0 3 0 C2.34 3.3 1.68 6.6 1 10 C0.67 9.01 0.34 8.02 0 7 C-0.66 6.67 -1.32 6.34 -2 6 C-1.34 4.02 -0.68 2.04 0 0 Z " fill="#A4AD8A" transform="translate(371,181)"/>
<path d="M0 0 C0.66 0 1.32 0 2 0 C3 3 3 3 1.5625 6.1875 C0.7890625 7.5796875 0.7890625 7.5796875 0 9 C-0.66 9 -1.32 9 -2 9 C-1.34 6.03 -0.68 3.06 0 0 Z " fill="#D3DEAA" transform="translate(354,173)"/>
<path d="M0 0 C0.99 0 1.98 0 3 0 C2.34 3.3 1.68 6.6 1 10 C0.34 10 -0.32 10 -1 10 C-0.67 6.7 -0.34 3.4 0 0 Z " fill="#7C865D" transform="translate(355,156)"/>
<path d="M0 0 C0.66 0.33 1.32 0.66 2 1 C-0.64 3.64 -3.28 6.28 -6 9 C-6.33 8.01 -6.66 7.02 -7 6 C-4.69 4.02 -2.38 2.04 0 0 Z " fill="#848D61" transform="translate(244,89)"/>
<path d="M0 0 C-0.66 0.66 -1.32 1.32 -2 2 C-1.01 2.99 -0.02 3.98 1 5 C-4.53846154 4.38461538 -4.53846154 4.38461538 -6.875 2.4375 C-7.24625 1.963125 -7.6175 1.48875 -8 1 C-5.07175348 0.02391783 -3.04386724 -0.08226668 0 0 Z " fill="#B3BC98" transform="translate(167,421)"/>
<path d="M0 0 C1.67542976 0.28604898 3.34385343 0.61781233 5 1 C3.7260411 3.03833424 2.38938077 5.03852126 1 7 C0.34 7 -0.32 7 -1 7 C-1.04254356 5.00045254 -1.04080783 2.99958364 -1 1 C-0.67 0.67 -0.34 0.34 0 0 Z " fill="#A6B08C" transform="translate(330,249)"/>
<path d="M0 0 C0.66 0 1.32 0 2 0 C1.67 4.62 1.34 9.24 1 14 C0.67 14 0.34 14 0 14 C-0.19532961 12.2300132 -0.38098882 10.45895721 -0.5625 8.6875 C-0.66691406 7.70136719 -0.77132812 6.71523437 -0.87890625 5.69921875 C-1 3 -1 3 0 0 Z " fill="#8D9969" transform="translate(191,176)"/>
<path d="M0 0 C0.6875 1.8125 0.6875 1.8125 1 4 C-0.4375 5.75 -0.4375 5.75 -2 7 C-4.1385485 4.8614515 -4.42655063 3.86724686 -5 1 C-2 0 -2 0 0 0 Z " fill="#7A8851" transform="translate(229,125)"/>
<path d="M0 0 C-0.8125 2.9375 -0.8125 2.9375 -2 6 C-2.99 6.33 -3.98 6.66 -5 7 C-4.625 4.0625 -4.625 4.0625 -4 1 C-2 0 -2 0 0 0 Z " fill="#8F9A71" transform="translate(160,368)"/>
<path d="M0 0 C0.66 0.33 1.32 0.66 2 1 C1.875 3.3125 1.875 3.3125 1 6 C-2.0625 7.8125 -2.0625 7.8125 -5 9 C-3.50163895 5.88801935 -1.80066242 2.9465385 0 0 Z " fill="#BDC3A8" transform="translate(173,343)"/>
<path d="M0 0 C0 3.37027852 -0.49824008 4.06702696 -2.4375 6.6875 C-2.88996094 7.31011719 -3.34242188 7.93273437 -3.80859375 8.57421875 C-4.20175781 9.04472656 -4.59492188 9.51523437 -5 10 C-5.33 10 -5.66 10 -6 10 C-6.375 7.8125 -6.375 7.8125 -6 5 C-4.16038352 3.00977164 -2.20813852 1.61010101 0 0 Z " fill="#DFE8BC" transform="translate(197,321)"/>
<path d="M0 0 C0.99 0.495 0.99 0.495 2 1 C3.99960012 1.039992 6.00047242 1.04346799 8 1 C3.25 4.875 3.25 4.875 1 6 C0.67 4.02 0.34 2.04 0 0 Z " fill="#C7D09E" transform="translate(197,262)"/>
<path d="M0 0 C0.99 0.33 1.98 0.66 3 1 C3 1.66 3 2.32 3 3 C3.99 3.33 4.98 3.66 6 4 C5.01 4.495 5.01 4.495 4 5 C4.66 5.66 5.32 6.32 6 7 C3 7 3 7 1.3125 5.75 C0 4 0 4 0 0 Z " fill="#C2CD92" transform="translate(339,86)"/>
<path d="M0 0 C0.99 0 1.98 0 3 0 C1.77065985 3.68802044 0.06140622 4.72356973 -3 7 C-3.66 6.67 -4.32 6.34 -5 6 C-4.34 4.68 -3.68 3.36 -3 2 C-2.01 2 -1.02 2 0 2 C0 1.34 0 0.68 0 0 Z " fill="#B2BA9C" transform="translate(319,261)"/>
<path d="M0 0 C0.99 0 1.98 0 3 0 C1.90931332 3.77545388 1.0916909 6.47043472 -2 9 C-2.33 7.68 -2.66 6.36 -3 5 C-2.34 4.67 -1.68 4.34 -1 4 C-0.34786708 1.97536745 -0.34786708 1.97536745 0 0 Z " fill="#ADB694" transform="translate(361,208)"/>
<path d="M0 0 C1.8125 0.125 1.8125 0.125 4 1 C5.75 4.0625 5.75 4.0625 7 7 C4.13302508 5.71480435 2.02392288 4.42870746 0 2 C0 1.34 0 0.68 0 0 Z " fill="#8A9764" transform="translate(348,80)"/>
<path d="M0 0 C0.33 0.66 0.66 1.32 1 2 C-1.97 2 -4.94 2 -8 2 C-8 1.34 -8 0.68 -8 0 C-5.09660535 -1.45169732 -3.09125158 -0.72348441 0 0 Z " fill="#DDE7B9" transform="translate(301,67)"/>
<path d="M0 0 C-2.125 2.0625 -2.125 2.0625 -5 4 C-8.3125 3.75 -8.3125 3.75 -11 3 C-3.71428571 -1.85714286 -3.71428571 -1.85714286 0 0 Z " fill="#BAC2A1" transform="translate(178,404)"/>
<path d="M0 0 C0.99 0 1.98 0 3 0 C3.25 6.625 3.25 6.625 1 10 C0.67 6.7 0.34 3.4 0 0 Z " fill="#B2BA9A" transform="translate(216,356)"/>
<path d="M0 0 C0.66 0.99 1.32 1.98 2 3 C0.71034824 4.37562854 -0.62689293 5.70766393 -2 7 C-2.66 7 -3.32 7 -4 7 C-2.92598892 4.08482708 -2.22189824 2.22189824 0 0 Z " fill="#7E875F" transform="translate(324,226)"/>
<path d="M0 0 C5.75 1.625 5.75 1.625 8 5 C7.236875 4.835 6.47375 4.67 5.6875 4.5 C2.96403764 3.90854604 2.96403764 3.90854604 0 4 C0 2.68 0 1.36 0 0 Z " fill="#EEF2DF" transform="translate(328,87)"/>
<path d="M0 0 C1.04005702 3.38018531 1.08004482 6.4780279 1 10 C0.01 10.33 -0.98 10.66 -2 11 C-1.125 3.375 -1.125 3.375 0 0 Z " fill="#A8B28E" transform="translate(151,380)"/>
<path d="M0 0 C0.99 0.33 1.98 0.66 3 1 C2.34 1 1.68 1 1 1 C1.33 1.66 1.66 2.32 2 3 C2.039992 4.99960012 2.04346799 7.00047242 2 9 C1.67 9 1.34 9 1 9 C1 7.35 1 5.7 1 4 C0.01 4 -0.98 4 -2 4 C-2 3.01 -2 2.02 -2 1 C-1.34 0.67 -0.68 0.34 0 0 Z " fill="#C6CCB1" transform="translate(266,286)"/>
<path d="M0 0 C2.30143236 3.45214853 2.13833854 4.23479324 1.625 8.1875 C1.51414063 9.08855469 1.40328125 9.98960937 1.2890625 10.91796875 C1.19367188 11.60503906 1.09828125 12.29210937 1 13 C0.67 13 0.34 13 0 13 C-0.19397476 11.02145742 -0.38001321 9.0421352 -0.5625 7.0625 C-0.66691406 5.96035156 -0.77132812 4.85820312 -0.87890625 3.72265625 C-0.91886719 2.82417969 -0.95882812 1.92570312 -1 1 C-0.67 0.67 -0.34 0.34 0 0 Z " fill="#8C9A5F" transform="translate(219,275)"/>
<path d="M0 0 C0.66 0 1.32 0 2 0 C2.33 2.64 2.66 5.28 3 8 C2.01 7.34 1.02 6.68 0 6 C-0.1875 2.875 -0.1875 2.875 0 0 Z " fill="#CBD6AE" transform="translate(254,248)"/>
<path d="M0 0 C0.66 0 1.32 0 2 0 C2 3.3 2 6.6 2 10 C1.67 10 1.34 10 1 10 C0.855625 9.2575 0.71125 8.515 0.5625 7.75 C0.21921582 6.07172178 -0.16651881 4.40053228 -0.625 2.75 C-0.74875 2.1725 -0.8725 1.595 -1 1 C-0.67 0.67 -0.34 0.34 0 0 Z " fill="#A7B188" transform="translate(376,156)"/>
<path d="M0 0 C0.66 0 1.32 0 2 0 C0.125 5.75 0.125 5.75 -1 8 C-1.66 8 -2.32 8 -3 8 C-1.125 1.125 -1.125 1.125 0 0 Z " fill="#DCE6B8" transform="translate(205,142)"/>
<path d="M0 0 C0.66 0 1.32 0 2 0 C2 1.65 2 3.3 2 5 C0.68 5.33 -0.64 5.66 -2 6 C-1.125 1.125 -1.125 1.125 0 0 Z " fill="#D4DDBD" transform="translate(235,121)"/>
<path d="M0 0 C1.98 0.495 1.98 0.495 4 1 C4 1.99 4 2.98 4 4 C2.35 4.33 0.7 4.66 -1 5 C-0.67 3.35 -0.34 1.7 0 0 Z " fill="#6F7C45" transform="translate(239,109)"/>
<path d="M0 0 C1.65 0.33 3.3 0.66 5 1 C2.82575883 3.50037734 1.26954202 4.43628586 -2 5 C-2 4.01 -2 3.02 -2 2 C-1.34 2 -0.68 2 0 2 C0 1.34 0 0.68 0 0 Z " fill="#DEE3CE" transform="translate(273,90)"/>
<path d="M0 0 C0.99 0.33 1.98 0.66 3 1 C1.71034824 2.37562854 0.37310707 3.70766393 -1 5 C-1.66 5 -2.32 5 -3 5 C-2.625 3.0625 -2.625 3.0625 -2 1 C-1.34 0.67 -0.68 0.34 0 0 Z " fill="#A3A986" transform="translate(187,419)"/>
<path d="M0 0 C0.33 0 0.66 0 1 0 C1 1.65 1 3.3 1 5 C-0.65 5.66 -2.3 6.32 -4 7 C-2.79618552 4.50638429 -1.54571278 2.31856917 0 0 Z " fill="#838C5D" transform="translate(200,405)"/>
<path d="M0 0 C1.33332095 2.6666419 0.67102033 4.16680303 0 7 C-1.65 7.33 -3.3 7.66 -5 8 C-3.62845496 5.04590299 -2.01136276 2.55991624 0 0 Z " fill="#C1C7A9" transform="translate(187,326)"/>
<path d="M0 0 C0.66 0 1.32 0 2 0 C1.67 2.64 1.34 5.28 1 8 C0.34 8 -0.32 8 -1 8 C-1.04241723 5.66705225 -1.04092937 3.33297433 -1 1 C-0.67 0.67 -0.34 0.34 0 0 Z " fill="#77854C" transform="translate(219,250)"/>
<path d="M0 0 C0.99 0 1.98 0 3 0 C1.25 4.875 1.25 4.875 -1 6 C-1.66 5.34 -2.32 4.68 -3 4 C-1.6875 2 -1.6875 2 0 0 Z " fill="#A3AB87" transform="translate(348,230)"/>
<path d="M0 0 C0.99 0.33 1.98 0.66 3 1 C2.67 3.64 2.34 6.28 2 9 C0 7 0 7 -0.125 3.375 C-0.08375 2.26125 -0.0425 1.1475 0 0 Z " fill="#E7EBD4" transform="translate(209,217)"/>
<path d="M0 0 C-0.33 0.66 -0.66 1.32 -1 2 C-3.32156597 2.40729228 -5.6568787 2.74438677 -8 3 C-8 2.34 -8 1.68 -8 1 C-2.25 -1.125 -2.25 -1.125 0 0 Z " fill="#7D8B51" transform="translate(287,80)"/>
</svg>
